<svg xmlns="http://www.w3.org/2000/svg" width="205.8857879638672" height="307.52850341796875" viewBox="-39.68833923339844 -53.480712890625 205.8857879638672 307.52850341796875"><title>Neo4j Graph Visualization</title><desc>Created using Neo4j (http://www.neo4j.com/)</desc><g class="layer relationships"><g class="relationship" transform="translate(34.53700830459887 41.795385172747736) rotate(342.7500119923484)"><path class="outline" fill="#A5ABB6" stroke="none" d="M 5.987513214418485,24.277555179777966 L 6.953439040707552,24.018736134675446 A 46.52371828999396 46.52371828999396 0 0 0 22.013570342647157,47.63900048957624 L 21.37135319346911,48.40552324416453 A 47.52371828999396 47.52371828999396 0 0 1 5.987513214418485,24.277555179777966 Z M 77.69025702201712,51.8892716981469 L 77.14740478152989,51.049443474640455 A 46.52371828999396 46.52371828999396 0 0 0 95.00376847343283,29.465312296166907 L 92.223775601881,28.337642293851932 L 98.09833062409308,23.166607262931823 L 98.71042563550192,30.968872299253544 L 95.9304327639501,29.84120229693857 A 47.52371828999396 47.52371828999396 0 0 1 77.69025702201712,51.8892716981469"/><text text-anchor="middle" pointer-events="none" font-size="8px" fill="#000000" x="48.98867793979626" y="61.91152273385661" font-family="sans-serif">CONNECTION</text></g><g class="relationship" transform="translate(26.932459050015474 148.2628609191008) rotate(274.0854719798052)"><path class="outline" fill="#A5ABB6" stroke="none" d="M 5.987513214418485,24.277555179777966 L 6.953439040707552,24.018736134675446 A 46.118309978205 46.118309978205 0 0 0 21.67227475591359,47.25610951377588 L 21.025502769436997,48.01879293270481 A 47.118309978205 47.118309978205 0 0 1 5.987513214418485,24.277555179777966 Z M 77.27997973087435,51.52281878140786 L 76.73285327346663,50.68576881897761 A 46.118309978205 46.118309978205 0 0 0 94.22158472612423,29.454567285673512 L 91.44256188034866,28.32450887007834 L 97.32155817014223,23.158523714796388 L 97.92694852049165,30.96131183980041 L 95.14792567471608,29.831253424205237 A 47.118309978205 47.118309978205 0 0 1 77.27997973087435,51.52281878140786"/><text text-anchor="middle" pointer-events="none" font-size="8px" fill="#000000" x="48.60212236898489" y="61.61057431276536" font-family="sans-serif">CONNECTION</text></g><g class="relationship" transform="translate(26.932459050015474 148.2628609191008) rotate(385.4316028832082)"><path class="outline" fill="#A5ABB6" stroke="none" d="M 5.987513214418485,-24.277555179777966 L 6.953439040707552,-24.018736134675446 A 46.50095675444863 46.50095675444863 0 0 1 21.994377831864906,-47.61753417255162 L 21.351906399655988,-48.38384380892286 A 47.50095675444863 47.50095675444863 0 0 0 5.987513214418485,-24.277555179777966 Z M 77.66723703037196,-51.86872631574394 L 77.124146434392,-51.029052209582424 A 46.50095675444863 46.50095675444863 0 0 1 94.95985218917075,-29.464713388724633 L 92.17991338276747,-28.336910111263013 L 98.05471630431506,-23.166156720027274 L 98.6664372643751,-30.96845109200679 L 95.88649845797183,-29.84064781454517 A 47.50095675444863 47.50095675444863 0 0 0 77.66723703037196,-51.86872631574394"/><text text-anchor="middle" pointer-events="none" font-size="8px" fill="#000000" x="48.9669727781115" y="-55.89462616758693" font-family="sans-serif">CONNECTION</text></g><g class="relationship" transform="translate(34.53700830459887 41.795385172747736) rotate(342.7500119923484)"><path class="outline" fill="#A5ABB6" stroke="none" d="M 17.324116139070416,18.03122292025696 L 18.031222920256962,17.324116139070412 A 47.88622885914581 47.88622885914581 0 0 0 22.467738501653916,21.243190577714053 L 21.853278723313355,22.032138726074685 A 48.88622885914581 48.88622885914581 0 0 1 17.324116139070416,18.03122292025696 Z M 78.42537993513372,24.522394385890166 L 77.88262013380862,23.682506418322156 A 47.88622885914581 47.88622885914581 0 0 0 82.64633718982421,20.16841837590858 L 80.71961809852075,17.86890678793891 L 88.33298407697067,16.05599242752879 L 85.21529597822882,23.234433826534804 L 83.28857688692537,20.934922238565136 A 48.88622885914581 48.88622885914581 0 0 1 78.42537993513372,24.522394385890166"/><text text-anchor="middle" pointer-events="none" font-size="8px" fill="#000000" x="49.7640400974078" y="34.80285722066115" font-family="sans-serif">CONNECTION</text></g><g class="relationship" transform="translate(34.53700830459887 41.795385172747736) rotate(342.7500119923484)"><path class="outline" fill="#A5ABB6" stroke="none" d="M 24.018736134675446,6.953439040707552 L 24.277555179777966,5.987513214418485 A 106.69363562984188 106.69363562984188 0 0 0 26.233740176150377,6.491871719938231 L 25.993255729778365,7.46252471202817 A 107.69363562984188 107.69363562984188 0 0 1 24.018736134675446,6.953439040707552 Z M 74.4632679927526,8.231096342814112 L 74.25367930360923,7.253306702153523 A 106.69363562984188 106.69363562984188 0 0 0 76.22487169182628,6.811223213706379 L 75.54067985199895,3.890284746995092 L 83.15442675412385,5.701598665227806 L 77.13712747826274,10.705807835988093 L 76.4529356384354,7.784869369276807 A 107.69363562984188 107.69363562984188 0 0 1 74.4632679927526,8.231096342814112"/><text text-anchor="middle" pointer-events="none" font-size="8px" fill="#000000" x="50.192382614291745" y="13.10953721566132" font-family="sans-serif">CONNEC…</text></g><g class="relationship" transform="translate(34.53700830459887 41.795385172747736) rotate(342.7500119923484)"><path class="outline" fill="#A5ABB6" stroke="none" d="M 24.018736134675446,-6.953439040707552 L 24.277555179777966,-5.987513214418485 A 106.69363562984188 106.69363562984188 0 0 1 26.233740176150356,-6.491871719938231 L 25.993255729778344,-7.462524712028156 A 107.69363562984188 107.69363562984188 0 0 0 24.018736134675446,-6.953439040707552 Z M 74.46326799275258,-8.231096342814112 L 74.2536793036092,-7.253306702153523 A 106.69363562984188 106.69363562984188 0 0 1 76.22487169182628,-6.811223213706379 L 75.54067985199895,-3.890284746995092 L 83.15442675412385,-5.701598665227806 L 77.13712747826274,-10.705807835988093 L 76.4529356384354,-7.784869369276807 A 107.69363562984188 107.69363562984188 0 0 0 74.46326799275258,-8.231096342814112"/><text text-anchor="middle" pointer-events="none" font-size="8px" fill="#000000" x="50.192382614291716" y="-7.1095372156613195" font-family="sans-serif">CONNEC…</text></g><g class="relationship" transform="translate(34.53700830459887 41.795385172747736) rotate(342.7500119923484)"><path class="outline" fill="#A5ABB6" stroke="none" d="M 17.324116139070416,-18.03122292025696 L 18.031222920256962,-17.324116139070412 A 47.88622885914581 47.88622885914581 0 0 1 22.467738501653916,-21.243190577714053 L 21.853278723313355,-22.032138726074685 A 48.88622885914581 48.88622885914581 0 0 0 17.324116139070416,-18.03122292025696 Z M 78.42537993513373,-24.522394385890166 L 77.88262013380863,-23.68250641832215 A 47.88622885914581 47.88622885914581 0 0 1 82.64633718982421,-20.16841837590858 L 80.71961809852075,-17.86890678793891 L 88.33298407697067,-16.05599242752879 L 85.21529597822882,-23.234433826534804 L 83.28857688692537,-20.934922238565136 A 48.88622885914581 48.88622885914581 0 0 0 78.42537993513373,-24.522394385890166"/><text text-anchor="middle" pointer-events="none" font-size="8px" fill="#000000" x="49.76404009740781" y="-28.802857220661153" font-family="sans-serif">CONNECTION</text></g><g class="relationship" transform="translate(34.53700830459887 41.795385172747736) rotate(342.7500119923484)"><path class="outline" fill="#A5ABB6" stroke="none" d="M 5.987513214418485,-24.277555179777966 L 6.953439040707552,-24.018736134675446 A 46.52371828999396 46.52371828999396 0 0 1 22.013570342647157,-47.63900048957624 L 21.37135319346911,-48.40552324416453 A 47.52371828999396 47.52371828999396 0 0 0 5.987513214418485,-24.277555179777966 Z M 77.69025702201712,-51.8892716981469 L 77.14740478152989,-51.049443474640455 A 46.52371828999396 46.52371828999396 0 0 1 95.00376847343283,-29.465312296166907 L 92.223775601881,-28.337642293851932 L 98.09833062409308,-23.166607262931823 L 98.71042563550192,-30.968872299253544 L 95.9304327639501,-29.84120229693857 A 47.52371828999396 47.52371828999396 0 0 0 77.69025702201712,-51.8892716981469"/><text text-anchor="middle" pointer-events="none" font-size="8px" fill="#000000" x="48.98867793979626" y="-55.91152273385661" font-family="sans-serif">CONNECTION</text></g><g class="relationship" transform="translate(26.932459050015474 148.2628609191008) rotate(385.4316028832082)"><path class="outline" fill="#A5ABB6" stroke="none" d="M 10.396609043987748,-22.74116356711926 L 11.29757791189017,-22.307279828001697 A 45.0318958295954 45.0318958295954 0 0 1 22.398897026134108,-36.817619512774144 L 21.74444940522187,-37.57372685401765 A 46.0318958295954 46.0318958295954 0 0 0 10.396609043987748,-22.74116356711926 Z M 77.83927127688696,-40.77561819807572 L 77.27511121587096,-39.94995275399171 A 45.0318958295954 45.0318958295954 0 0 1 89.95544656189963,-26.79706944438938 L 87.41820944962893,-25.196310925400272 L 94.11342262491934,-21.143642602255916 L 93.33842937826057,-28.93141413637486 L 90.80119226598987,-27.33065561738575 A 46.0318958295954 46.0318958295954 0 0 0 77.83927127688696,-40.77561819807572"/><text text-anchor="middle" pointer-events="none" font-size="8px" fill="#000000" x="49.27517793539645" y="-45.22657479106046" font-family="sans-serif">CONNECTION</text></g><g class="relationship" transform="translate(26.932459050015474 148.2628609191008) rotate(385.4316028832082)"><path class="outline" fill="#A5ABB6" stroke="none" d="M 14.44320574945421,-20.411854586953456 L 15.247803529220876,-19.818034401379958 A 45.51604728312801 45.51604728312801 0 0 1 22.54949773573746,-27.603818133788323 L 21.90532017350632,-28.36869411610045 A 46.51604728312801 46.51604728312801 0 0 0 14.44320574945421,-20.411854586953456 Z M 78.10054668346187,-31.204482995158592 L 77.53664166361304,-30.37864334450643 A 45.51604728312801 45.51604728312801 0 0 1 85.58503694227319,-23.367473680908656 L 83.36284555015354,-21.35206667070221 L 90.65801853144151,-18.518261600997185 L 88.54795879843275,-26.054683027850583 L 86.32576740631309,-24.039276017644138 A 46.51604728312801 46.51604728312801 0 0 0 78.10054668346187,-31.204482995158592"/><text text-anchor="middle" pointer-events="none" font-size="8px" fill="#000000" x="49.55074985326663" y="-35.74725506401457" font-family="sans-serif">CONNECTION</text></g><g class="relationship" transform="translate(26.932459050015474 148.2628609191008) rotate(274.0854719798052)"><path class="outline" fill="#A5ABB6" stroke="none" d="M 13.473521019338785,21.06452542407343 L 14.30499063164133,20.50895519105383 A 44.734425084779964 44.734425084779964 0 0 0 22.228644100502976,29.48391457053439 L 21.57430101779916,30.240112382034578 A 45.734425084779964 45.734425084779964 0 0 1 13.473521019338785,21.06452542407343 Z M 77.63208472132064,33.18939539297486 L 77.06070377667297,32.36871042534506 A 44.734425084779964 44.734425084779964 0 0 0 85.88237852049551,24.27474755959551 L 83.57663259382664,22.355493610361602 L 90.74492872315277,19.214549388907155 L 88.95670642272066,26.833752825240726 L 86.6509604960518,24.914498876006817 A 45.734425084779964 45.734425084779964 0 0 1 77.63208472132064,33.18939539297486"/><text text-anchor="middle" pointer-events="none" font-size="8px" fill="#000000" x="49.1237424791513" y="43.82779125366969" font-family="sans-serif">CONNECTION</text></g><g class="relationship" transform="translate(26.932459050015474 148.2628609191008) rotate(385.4316028832082)"><path class="outline" fill="#A5ABB6" stroke="none" d="M 17.9862104268602,-17.370844380187897 L 18.666383164631117,-16.637792508358068 A 48.81632136737024 48.81632136737024 0 0 1 22.392060249798888,-19.76419798179228 L 21.78820782828306,-20.561294119676205 A 49.81632136737024 49.81632136737024 0 0 0 17.9862104268602,-17.370844380187897 Z M 78.4916633265729,-22.95928989817969 L 77.95726519200832,-22.114057010879456 A 48.81632136737024 48.81632136737024 0 0 1 81.93359969140741,-19.313370510010035 L 80.08604022365188,-16.94978763371673 L 87.7565529807177,-15.396328897962697 L 84.39701231508144,-22.464814345067772 L 82.54945284732591,-20.10123146877447 A 49.81632136737024 49.81632136737024 0 0 0 78.4916633265729,-22.95928989817969"/><text text-anchor="middle" pointer-events="none" font-size="8px" fill="#000000" x="49.78618360234918" y="-27.125177200189974" font-family="sans-serif">CONNECTION</text></g><g class="relationship" transform="translate(26.932459050015474 148.2628609191008) rotate(385.4316028832082)"><path class="outline" fill="#A5ABB6" stroke="none" d="M 20.90208894244944,-13.724164012497553 L 21.434121018964774,-12.87743981326927 A 57.206688170686334 57.206688170686334 0 0 1 21.930840967289967,-13.186019869460644 L 21.407491790697854,-14.038138194202205 A 58.206688170686334 58.206688170686334 0 0 0 20.90208894244944,-13.724164012497553 Z M 79.01180552011293,-15.930280738243432 L 78.54550358375226,-15.0456551088689 A 57.206688170686334 57.206688170686334 0 0 1 79.0614029800373,-14.770336800258733 L 77.63544267368678,-12.130897995377529 L 85.45775357581854,-11.883002552921042 L 80.96268338850467,-18.289588540100336 L 79.53672308215415,-15.650149735219134 A 58.206688170686334 58.206688170686334 0 0 0 79.01180552011293,-15.930280738243432"/><text text-anchor="middle" pointer-events="none" font-size="8px" fill="#000000" x="49.975430597830155" y="-19.11473486566851" font-family="sans-serif">CONNECTION</text></g><g class="relationship" transform="translate(26.932459050015474 148.2628609191008) rotate(274.0854719798052)"><path class="outline" fill="#A5ABB6" stroke="none" d="M 19.529452792776517,15.615712395363635 L 20.13821422178524,14.822359055072399 A 51.51786890103068 51.51786890103068 0 0 0 21.881284808046296,16.102643590586823 L 21.30635767039015,16.920848202151987 A 52.51786890103068 52.51786890103068 0 0 1 19.529452792776517,15.615712395363635 Z M 78.35077507888359,19.08560336633777 L 77.83951158081548,18.226179352510393 A 51.51786890103068 51.51786890103068 0 0 0 79.67459926160278,17.081680875277506 L 78.03394753342667,14.570055523670955 L 85.80850037004743,13.672097734800989 L 81.86213489917094,20.43051467741957 L 80.22148317099483,17.91888932581302 A 52.51786890103068 52.51786890103068 0 0 1 78.35077507888359,19.08560336633777"/><text text-anchor="middle" pointer-events="none" font-size="8px" fill="#000000" x="49.5277208180842" y="28.93093963725039" font-family="sans-serif">CONNECTION</text></g><g class="relationship" transform="translate(26.932459050015474 148.2628609191008) rotate(385.4316028832082)"><path class="outline" fill="#A5ABB6" stroke="none" d="M 23.08917320392191,-9.598962483481976 L 23.454514228288303,-8.668088734837774 A 77.77774187274046 77.77774187274046 0 0 1 24.14231965686472,-8.934276102062938 L 23.7858218492338,-9.868572261294233 A 78.77774187274046 78.77774187274046 0 0 0 23.08917320392191,-9.598962483481976 Z M 76.6242602270665,-11.054229022016159 L 76.31003002039118,-10.104882205930082 A 77.77774187274046 77.77774187274046 0 0 1 77.00908324404497,-9.869814954810986 L 76.03942913008791,-7.030841390424355 L 83.79496391327329,-8.080450949642259 L 78.30195539598773,-13.655113040659826 L 77.33230128203067,-10.816139476273195 A 78.77774187274046 78.77774187274046 0 0 0 76.6242602270665,-11.054229022016159"/><text text-anchor="middle" pointer-events="none" font-size="8px" fill="#000000" x="50.11385963306892" y="-11.524872645690493" font-family="sans-serif">CONNECT…</text></g><g class="relationship" transform="translate(26.932459050015474 148.2628609191008) rotate(385.4316028832082)"><path class="outline" fill="#A5ABB6" stroke="none" d="M 24.471206027250748,-5.139073415689509 L 24.657117634413662,-4.15650694245622 A 146.37491923094447 146.37491923094447 0 0 1 26.087924710093823,-4.419872005875817 L 25.91178804991771,-5.404237729040744 A 147.37491923094447 147.37491923094447 0 0 0 24.471206027250748,-5.139073415689509 Z M 74.51918456205004,-5.9575148897073404 L 74.36549986072323,-4.969394951350637 A 146.37491923094447 146.37491923094447 0 0 1 75.80193099188612,-4.738666431499891 L 75.3114367801596,-1.7790354700010145 L 82.7894856040046,-4.087451764387789 L 76.45592327418817,-8.684841046831727 L 75.96542906246164,-5.72521008533285 A 147.37491923094447 147.37491923094447 0 0 0 74.51918456205004,-5.9575148897073404"/><text text-anchor="middle" pointer-events="none" font-size="8px" fill="#000000" x="50.19820815613739" y="-4.1988241667772" font-family="sans-serif">CONNEC…</text></g><g class="relationship" transform="translate(26.932459050015474 148.2628609191008) rotate(385.4316028832082)"><path class="outline" fill="#A5ABB6" stroke="none" d="M 25 0.5 L 25.892554099914285 0.5 L 25.892554099914285 -0.5 L 25 -0.5 Z M 74.56052284991429 0.5 L 75.45307694982857 0.5 L 75.45307694982857 3.5 L 82.45307694982857 0 L 75.45307694982857 -3.5 L 75.45307694982857 -0.5 L 74.56052284991429 -0.5 Z"/><text text-anchor="middle" pointer-events="none" font-size="8px" fill="#000000" x="50.226538474914285" y="3" font-family="sans-serif">CONNEC…</text></g><g class="relationship" transform="translate(26.932459050015474 148.2628609191008) rotate(385.4316028832082)"><path class="outline" fill="#A5ABB6" stroke="none" d="M 24.471206027250748,5.139073415689509 L 24.657117634413662,4.15650694245622 A 146.37491923094447 146.37491923094447 0 0 0 26.08792471009379,4.4198720058757885 L 25.91178804991768,5.404237729040716 A 147.37491923094447 147.37491923094447 0 0 1 24.471206027250748,5.139073415689509 Z M 74.51918456205003,5.9575148897073404 L 74.36549986072322,4.969394951350637 A 146.37491923094447 146.37491923094447 0 0 0 75.80193099188612,4.738666431499891 L 75.3114367801596,1.7790354700010145 L 82.7894856040046,4.087451764387789 L 76.45592327418817,8.684841046831727 L 75.96542906246164,5.72521008533285 A 147.37491923094447 147.37491923094447 0 0 1 74.51918456205003,5.9575148897073404"/><text text-anchor="middle" pointer-events="none" font-size="8px" fill="#000000" x="50.19820815613737" y="10.1988241667772" font-family="sans-serif">CONNEC…</text></g><g class="relationship" transform="translate(26.932459050015474 148.2628609191008) rotate(274.0854719798052)"><path class="outline" fill="#A5ABB6" stroke="none" d="M 23.51253350472606,8.509451697326591 L 23.833972970029226,7.562521567831486 A 86.07011810867162 86.07011810867162 0 0 0 25.98798008021725,8.262240948575595 L 25.691566804694244,9.21730072162319 A 87.07011810867162 87.07011810867162 0 0 1 23.51253350472606,8.509451697326591 Z M 73.98906522504245,10.17589397317586 L 73.73078190121012,9.209824760008331 A 86.07011810867162 86.07011810867162 0 0 0 75.91085729619017,8.596126858160872 L 75.06002013740148,5.71930984465021 L 82.76523652084649,7.090309656572382 L 77.04530684124175,12.431882876175086 L 76.19446968245306,9.555065862664424 A 87.07011810867162 87.07011810867162 0 0 1 73.98906522504245,10.17589397317586"/><text text-anchor="middle" pointer-events="none" font-size="8px" fill="#000000" x="49.78242811553141" y="15.613205327118152" font-family="sans-serif">CONNEC…</text></g><g class="relationship" transform="translate(26.932459050015474 148.2628609191008) rotate(385.4316028832082)"><path class="outline" fill="#A5ABB6" stroke="none" d="M 23.08917320392191,9.598962483481976 L 23.454514228288303,8.668088734837774 A 77.77774187274046 77.77774187274046 0 0 0 24.142319656864725,8.934276102062938 L 23.785821849233805,9.868572261294233 A 78.77774187274046 78.77774187274046 0 0 1 23.08917320392191,9.598962483481976 Z M 76.62426022706651,11.054229022016159 L 76.3100300203912,10.104882205930068 A 77.77774187274046 77.77774187274046 0 0 0 77.00908324404497,9.869814954810986 L 76.03942913008791,7.030841390424355 L 83.79496391327329,8.080450949642259 L 78.30195539598773,13.655113040659826 L 77.33230128203067,10.816139476273195 A 78.77774187274046 78.77774187274046 0 0 1 76.62426022706651,11.054229022016159"/><text text-anchor="middle" pointer-events="none" font-size="8px" fill="#000000" x="50.113859633068934" y="17.524872645690493" font-family="sans-serif">CONNECT…</text></g><g class="relationship" transform="translate(26.932459050015474 148.2628609191008) rotate(274.0854719798052)"><path class="outline" fill="#A5ABB6" stroke="none" d="M 25 0.5 L 25.535371441717672 0.5 L 25.535371441717672 -0.5 L 25 -0.5 Z M 74.20334019171767 0.5 L 74.73871163343534 0.5 L 74.73871163343534 3.5 L 81.73871163343534 0 L 74.73871163343534 -3.5 L 74.73871163343534 -0.5 L 74.20334019171767 -0.5 Z"/><text text-anchor="middle" pointer-events="none" font-size="8px" fill="#000000" x="49.86935581671767" y="3" font-family="sans-serif">CONNEC…</text></g><g class="relationship" transform="translate(26.932459050015474 148.2628609191008) rotate(274.0854719798052)"><path class="outline" fill="#A5ABB6" stroke="none" d="M 23.51253350472606,-8.509451697326591 L 23.833972970029226,-7.562521567831486 A 86.07011810867162 86.07011810867162 0 0 1 25.987980080217223,-8.262240948575581 L 25.69156680469422,-9.217300721623175 A 87.07011810867162 87.07011810867162 0 0 0 23.51253350472606,-8.509451697326591 Z M 73.98906522504247,-10.17589397317586 L 73.73078190121014,-9.209824760008331 A 86.07011810867162 86.07011810867162 0 0 1 75.91085729619017,-8.596126858160872 L 75.06002013740148,-5.71930984465021 L 82.76523652084649,-7.090309656572382 L 77.04530684124175,-12.431882876175086 L 76.19446968245306,-9.555065862664424 A 87.07011810867162 87.07011810867162 0 0 0 73.98906522504247,-10.17589397317586"/><text text-anchor="middle" pointer-events="none" font-size="8px" fill="#000000" x="49.78242811553141" y="-9.613205327118152" font-family="sans-serif">CONNEC…</text></g><g class="relationship" transform="translate(26.932459050015474 148.2628609191008) rotate(385.4316028832082)"><path class="outline" fill="#A5ABB6" stroke="none" d="M 20.90208894244944,13.724164012497553 L 21.434121018964774,12.87743981326927 A 57.206688170686334 57.206688170686334 0 0 0 21.93084096728996,13.186019869460637 L 21.407491790697847,14.038138194202197 A 58.206688170686334 58.206688170686334 0 0 1 20.90208894244944,13.724164012497553 Z M 79.01180552011294,15.930280738243432 L 78.54550358375226,15.0456551088689 A 57.206688170686334 57.206688170686334 0 0 0 79.0614029800373,14.770336800258733 L 77.63544267368678,12.130897995377529 L 85.45775357581854,11.883002552921042 L 80.96268338850467,18.289588540100336 L 79.53672308215415,15.650149735219134 A 58.206688170686334 58.206688170686334 0 0 1 79.01180552011294,15.930280738243432"/><text text-anchor="middle" pointer-events="none" font-size="8px" fill="#000000" x="49.97543059783016" y="25.11473486566851" font-family="sans-serif">CONNECTION</text></g><g class="relationship" transform="translate(26.932459050015474 148.2628609191008) rotate(385.4316028832082)"><path class="outline" fill="#A5ABB6" stroke="none" d="M 17.9862104268602,17.370844380187897 L 18.666383164631117,16.637792508358068 A 48.81632136737024 48.81632136737024 0 0 0 22.392060249798906,19.764197981792293 L 21.788207828283074,20.56129411967622 A 49.81632136737024 49.81632136737024 0 0 1 17.9862104268602,17.370844380187897 Z M 78.4916633265729,22.959289898179684 L 77.95726519200832,22.11405701087945 A 48.81632136737024 48.81632136737024 0 0 0 81.93359969140741,19.313370510010035 L 80.08604022365188,16.94978763371673 L 87.7565529807177,15.396328897962697 L 84.39701231508144,22.464814345067772 L 82.54945284732591,20.10123146877447 A 49.81632136737024 49.81632136737024 0 0 1 78.4916633265729,22.959289898179684"/><text text-anchor="middle" pointer-events="none" font-size="8px" fill="#000000" x="49.7861836023492" y="33.125177200189974" font-family="sans-serif">CONNECTION</text></g><g class="relationship" transform="translate(26.932459050015474 148.2628609191008) rotate(274.0854719798052)"><path class="outline" fill="#A5ABB6" stroke="none" d="M 19.529452792776517,-15.615712395363635 L 20.13821422178524,-14.822359055072399 A 51.51786890103068 51.51786890103068 0 0 1 21.881284808046285,-16.10264359058681 L 21.306357670390135,-16.920848202151973 A 52.51786890103068 52.51786890103068 0 0 0 19.529452792776517,-15.615712395363635 Z M 78.35077507888357,-19.08560336633777 L 77.83951158081547,-18.226179352510393 A 51.51786890103068 51.51786890103068 0 0 1 79.67459926160278,-17.081680875277506 L 78.03394753342667,-14.570055523670955 L 85.80850037004743,-13.672097734800989 L 81.86213489917094,-20.43051467741957 L 80.22148317099483,-17.91888932581302 A 52.51786890103068 52.51786890103068 0 0 0 78.35077507888357,-19.08560336633777"/><text text-anchor="middle" pointer-events="none" font-size="8px" fill="#000000" x="49.527720818084184" y="-22.93093963725039" font-family="sans-serif">CONNECTION</text></g><g class="relationship" transform="translate(26.932459050015474 148.2628609191008) rotate(274.0854719798052)"><path class="outline" fill="#A5ABB6" stroke="none" d="M 13.473521019338785,-21.06452542407343 L 14.30499063164133,-20.50895519105383 A 44.734425084779964 44.734425084779964 0 0 1 22.22864410050298,-29.4839145705344 L 21.57430101779917,-30.240112382034585 A 45.734425084779964 45.734425084779964 0 0 0 13.473521019338785,-21.06452542407343 Z M 77.63208472132064,-33.18939539297486 L 77.06070377667295,-32.36871042534506 A 44.734425084779964 44.734425084779964 0 0 1 85.88237852049551,-24.27474755959551 L 83.57663259382664,-22.355493610361602 L 90.74492872315277,-19.214549388907155 L 88.95670642272066,-26.833752825240726 L 86.6509604960518,-24.914498876006817 A 45.734425084779964 45.734425084779964 0 0 0 77.63208472132064,-33.18939539297486"/><text text-anchor="middle" pointer-events="none" font-size="8px" fill="#000000" x="49.123742479151296" y="-37.82779125366969" font-family="sans-serif">CONNECTION</text></g><g class="relationship" transform="translate(26.932459050015474 148.2628609191008) rotate(385.4316028832082)"><path class="outline" fill="#A5ABB6" stroke="none" d="M 14.44320574945421,20.411854586953456 L 15.247803529220876,19.818034401379958 A 45.51604728312801 45.51604728312801 0 0 0 22.54949773573747,27.603818133788344 L 21.90532017350633,28.36869411610047 A 46.51604728312801 46.51604728312801 0 0 1 14.44320574945421,20.411854586953456 Z M 78.1005466834619,31.20448299515857 L 77.53664166361307,30.378643344506408 A 45.51604728312801 45.51604728312801 0 0 0 85.58503694227319,23.367473680908656 L 83.36284555015354,21.35206667070221 L 90.65801853144151,18.518261600997185 L 88.54795879843275,26.054683027850583 L 86.32576740631309,24.039276017644138 A 46.51604728312801 46.51604728312801 0 0 1 78.1005466834619,31.20448299515857"/><text text-anchor="middle" pointer-events="none" font-size="8px" fill="#000000" x="49.55074985326666" y="41.74725506401457" font-family="sans-serif">CONNECTION</text></g><g class="relationship" transform="translate(26.932459050015474 148.2628609191008) rotate(274.0854719798052)"><path class="outline" fill="#A5ABB6" stroke="none" d="M 5.987513214418485,-24.277555179777966 L 6.953439040707552,-24.018736134675446 A 46.118309978205 46.118309978205 0 0 1 21.672274755913577,-47.25610951377587 L 21.02550276943698,-48.0187929327048 A 47.118309978205 47.118309978205 0 0 0 5.987513214418485,-24.277555179777966 Z M 77.27997973087435,-51.52281878140786 L 76.73285327346663,-50.68576881897761 A 46.118309978205 46.118309978205 0 0 1 94.22158472612423,-29.454567285673512 L 91.44256188034866,-28.32450887007834 L 97.32155817014223,-23.158523714796388 L 97.92694852049165,-30.96131183980041 L 95.14792567471608,-29.831253424205237 A 47.118309978205 47.118309978205 0 0 0 77.27997973087435,-51.52281878140786"/><text text-anchor="middle" pointer-events="none" font-size="8px" fill="#000000" x="48.60212236898487" y="-55.61057431276536" font-family="sans-serif">CONNECTION</text></g><g class="relationship" transform="translate(26.932459050015474 148.2628609191008) rotate(385.4316028832082)"><path class="outline" fill="#A5ABB6" stroke="none" d="M 10.396609043987748,22.74116356711926 L 11.29757791189017,22.307279828001697 A 45.0318958295954 45.0318958295954 0 0 0 22.39889702613411,36.81761951277416 L 21.74444940522188,37.57372685401765 A 46.0318958295954 46.0318958295954 0 0 1 10.396609043987748,22.74116356711926 Z M 77.83927127688696,40.77561819807572 L 77.27511121587096,39.94995275399171 A 45.0318958295954 45.0318958295954 0 0 0 89.95544656189963,26.79706944438938 L 87.41820944962893,25.196310925400272 L 94.11342262491934,21.143642602255916 L 93.33842937826057,28.93141413637486 L 90.80119226598987,27.33065561738575 A 46.0318958295954 46.0318958295954 0 0 1 77.83927127688696,40.77561819807572"/><text text-anchor="middle" pointer-events="none" font-size="8px" fill="#000000" x="49.27517793539646" y="51.22657479106046" font-family="sans-serif">CONNECTION</text></g><g class="relationship" transform="translate(26.932459050015474 148.2628609191008) rotate(385.4316028832082)"><path class="outline" fill="#A5ABB6" stroke="none" d="M 5.987513214418485,24.277555179777966 L 6.953439040707552,24.018736134675446 A 46.50095675444863 46.50095675444863 0 0 0 21.994377831864913,47.61753417255163 L 21.35190639965599,48.38384380892287 A 47.50095675444863 47.50095675444863 0 0 1 5.987513214418485,24.277555179777966 Z M 77.66723703037198,51.868726315743935 L 77.12414643439202,51.02905220958242 A 46.50095675444863 46.50095675444863 0 0 0 94.95985218917075,29.464713388724633 L 92.17991338276747,28.336910111263013 L 98.05471630431506,23.166156720027274 L 98.6664372643751,30.96845109200679 L 95.88649845797183,29.84064781454517 A 47.50095675444863 47.50095675444863 0 0 1 77.66723703037198,51.868726315743935"/><text text-anchor="middle" pointer-events="none" font-size="8px" fill="#000000" x="48.966972778111504" y="61.89462616758693" font-family="sans-serif">CONNECTION</text></g></g><g class="layer nodes"><g class="node" transform="translate(137.19743843206192,9.91849787328471)"><circle class="outline" cx="0" cy="0" r="25" fill="#ECB5C9" stroke="#da7298" stroke-width="2px"/><text text-anchor="middle" pointer-events="none" font-family="sans-serif" dy="1.5625" font-size="25" fill="#2A2C34"/><text text-anchor="middle" pointer-events="none" x="0" y="5" font-size="10px" fill="#2A2C34" font-family="sans-serif"> LAX</text></g><g class="node" transform="translate(123.97317873835478,194.40679300507435)"><circle class="outline" cx="0" cy="0" r="25" fill="#ECB5C9" stroke="#da7298" stroke-width="2px"/><text text-anchor="middle" pointer-events="none" font-family="sans-serif" dy="1.5625" font-size="25" fill="#2A2C34"/><text text-anchor="middle" pointer-events="none" x="0" y="5" font-size="10px" fill="#2A2C34" font-family="sans-serif"> DAY</text></g><g class="node" transform="translate(34.53700830459887,41.795385172747736)"><circle class="outline" cx="0" cy="0" r="25" fill="#ECB5C9" stroke="#da7298" stroke-width="2px"/><text text-anchor="middle" pointer-events="none" font-family="sans-serif" dy="1.5625" font-size="25" fill="#2A2C34"/><text text-anchor="middle" pointer-events="none" x="0" y="5" font-size="10px" fill="#2A2C34" font-family="sans-serif"> ORD</text></g><g class="node" transform="translate(26.932459050015474,148.2628609191008)"><circle class="outline" cx="0" cy="0" r="25" fill="#ECB5C9" stroke="#da7298" stroke-width="2px"/><text text-anchor="middle" pointer-events="none" font-family="sans-serif" dy="1.5625" font-size="25" fill="#2A2C34"/><text text-anchor="middle" pointer-events="none" x="0" y="5" font-size="10px" fill="#2A2C34" font-family="sans-serif"> MSP</text></g></g></svg>