<svg xmlns="http://www.w3.org/2000/svg" width="200.1041259765625" height="308.8916931152344" viewBox="-40.21717071533203 -55.7305908203125 200.1041259765625 308.8916931152344"><title>Neo4j Graph Visualization</title><desc>Created using Neo4j (http://www.neo4j.com/)</desc><g class="layer relationships"><g class="relationship" transform="translate(28.605662807452074 39.72188067328086) rotate(342.5017813580705)"><path class="outline" fill="#A5ABB6" stroke="none" d="M 5.987513214418485,24.277555179777966 L 6.953439040707552,24.018736134675446 A 46.38890249692963 46.38890249692963 0 0 0 21.899946409389436,47.511802714954996 L 21.256220647429785,48.27705897490291 A 47.38890249692963 47.38890249692963 0 0 1 5.987513214418485,24.277555179777966 Z M 77.5538847522846,51.767532048460026 L 77.00961794344137,50.928619871416686 A 46.38890249692963 46.38890249692963 0 0 0 94.74365520470232,29.4617574485165 L 91.9639832438158,28.33329664287844 L 97.84000907800554,23.163933007387634 L 98.44988448588434,30.966371856033913 L 95.67021252499782,29.837911050395853 A 47.38890249692963 47.38890249692963 0 0 1 77.5538847522846,51.767532048460026"/><text text-anchor="middle" pointer-events="none" font-size="8px" fill="#000000" x="48.86012265069482" y="61.811444782247605" font-family="sans-serif">CONNECTION</text></g><g class="relationship" transform="translate(26.44860864434308 146.3210170485742) rotate(271.1592329876708)"><path class="outline" fill="#A5ABB6" stroke="none" d="M 5.987513214418485,24.277555179777966 L 6.953439040707552,24.018736134675446 A 46.05521937612099 46.05521937612099 0 0 0 21.619266454856206,47.19641718926228 L 20.971780701436547,47.95849474379238 A 47.05521937612099 47.05521937612099 0 0 1 5.987513214418485,24.277555179777966 Z M 77.2160801076632,51.46569117890867 L 76.66828295406556,50.6290799917313 A 46.05521937612099 46.05521937612099 0 0 0 94.09986217789093,29.452880177476494 L 91.32099164697571,28.32244726376116 L 97.20068406504592,23.157254424293534 L 97.80502288577789,30.96012406243028 L 95.02615235486267,29.829691148714943 A 47.05521937612099 47.05521937612099 0 0 1 77.2160801076632,51.46569117890867"/><text text-anchor="middle" pointer-events="none" font-size="8px" fill="#000000" x="48.54197288849976" y="61.563739673066785" font-family="sans-serif">CONNECTION</text></g><g class="relationship" transform="translate(26.44860864434308 146.3210170485742) rotate(386.4908488441606)"><path class="outline" fill="#A5ABB6" stroke="none" d="M 5.987513214418485,-24.277555179777966 L 6.953439040707552,-24.018736134675446 A 46.39853992571363 46.39853992571363 0 0 1 21.90806470343779,-47.52089984357623 L 21.264446986125282,-48.28624697655671 A 47.39853992571363 47.39853992571363 0 0 0 5.987513214418485,-24.277555179777966 Z M 77.56363550198759,-51.77623872273219 L 77.01947003855025,-50.93726080383203 A 46.39853992571363 46.39853992571363 0 0 1 94.76224952671292,-29.462012173215523 L 91.98255457046093,-28.333608012381614 L 97.85847506136736,-23.16412463543321 L 98.46850946838222,-30.9665510543274 L 95.68881451213024,-29.83814689349349 A 47.39853992571363 47.39853992571363 0 0 0 77.56363550198759,-51.77623872273219"/><text text-anchor="middle" pointer-events="none" font-size="8px" fill="#000000" x="48.86931225062822" y="-55.81859895863199" font-family="sans-serif">CONNECTION</text></g><g class="relationship" transform="translate(26.44860864434308 146.3210170485742) rotate(271.1592329876708)"><path class="outline" fill="#A5ABB6" stroke="none" d="M 13.473521019338785,21.06452542407343 L 14.30499063164133,20.50895519105383 A 44.66113215735676 44.66113215735676 0 0 0 22.177576573332775,29.436216838833726 L 21.522380726638175,30.19167590620545 A 45.66113215735676 45.66113215735676 0 0 1 13.473521019338785,21.06452542407343 Z M 77.56734170573125,33.14342616855781 L 76.99512687881506,32.32332239960094 A 44.66113215735676 44.66113215735676 0 0 0 85.76191120515512,24.27241546232505 L 83.45637988458448,22.352903719754096 L 90.62502715791578,19.21276100475537 L 88.83595296591598,26.831764452419655 L 86.53042164534534,24.9122527098487 A 45.66113215735676 45.66113215735676 0 0 1 77.56734170573125,33.14342616855781"/><text text-anchor="middle" pointer-events="none" font-size="8px" fill="#000000" x="49.06413111970908" y="43.79518620424737" font-family="sans-serif">CONNECTION</text></g><g class="relationship" transform="translate(26.44860864434308 146.3210170485742) rotate(271.1592329876708)"><path class="outline" fill="#A5ABB6" stroke="none" d="M 19.529452792776517,15.615712395363635 L 20.13821422178524,14.822359055072399 A 51.41776262122195 51.41776262122195 0 0 0 21.829634260369314,16.066201147337324 L 21.253768468050275,16.88374539032162 A 52.41776262122195 52.41776262122195 0 0 1 19.529452792776517,15.615712395363635 Z M 78.2867560137903,19.0503387685888 L 77.77457484084934,18.19146133490876 A 51.41776262122195 51.41776262122195 0 0 0 79.55548709014883,17.079527677846166 L 77.91503518489424,14.567771808629061 L 85.68965943586451,13.670432543788296 L 81.74275629715495,20.42853550346897 L 80.10230439190036,17.916779634251867 A 52.41776262122195 52.41776262122195 0 0 1 78.2867560137903,19.0503387685888"/><text text-anchor="middle" pointer-events="none" font-size="8px" fill="#000000" x="49.46851240844771" y="28.91024665580359" font-family="sans-serif">CONNECTION</text></g><g class="relationship" transform="translate(28.605662807452074 39.72188067328086) rotate(342.5017813580705)"><path class="outline" fill="#A5ABB6" stroke="none" d="M 17.324116139070416,18.03122292025696 L 18.031222920256962,17.324116139070412 A 47.70206706098865 47.70206706098865 0 0 0 22.358236618987267,21.155940472882925 L 21.741838982400218,21.94337552011533 A 48.70206706098865 48.70206706098865 0 0 1 17.324116139070416,18.03122292025696 Z M 78.28763802546844,24.438058230674613 L 77.7429802396592,23.599399839935344 A 47.70206706098865 47.70206706098865 0 0 0 82.39062993451367,20.16351893569597 L 80.46436423120635,17.863627538203048 L 88.07808747921504,16.052214194227695 L 84.95898420559011,23.23004079901986 L 83.03271850228279,20.93014940152694 A 48.70206706098865 48.70206706098865 0 0 1 78.28763802546844,24.438058230674613"/><text text-anchor="middle" pointer-events="none" font-size="8px" fill="#000000" x="49.63716991277866" y="34.74888645347175" font-family="sans-serif">CONNECTION</text></g><g class="relationship" transform="translate(26.44860864434308 146.3210170485742) rotate(386.4908488441606)"><path class="outline" fill="#A5ABB6" stroke="none" d="M 10.396609043987748,-22.74116356711926 L 11.29757791189017,-22.307279828001697 A 44.922095076821385 44.922095076821385 0 0 1 22.31462214572351,-36.7326395855997 L 21.658901061010923,-37.487642803515584 A 45.922095076821385 45.922095076821385 0 0 0 10.396609043987748,-22.74116356711926 Z M 77.73479668312237,-40.694003329051014 L 77.16940850597953,-39.86917837238014 A 44.922095076821385 44.922095076821385 0 0 1 89.75892638830442,-26.793616920687487 L 87.2220051294262,-25.192357876606316 L 93.91801770097352,-21.141010490651833 L 93.14148806680872,-28.92862897946238 L 90.6045668079305,-27.32736993538121 A 45.922095076821385 45.922095076821385 0 0 0 77.73479668312237,-40.694003329051014"/><text text-anchor="middle" pointer-events="none" font-size="8px" fill="#000000" x="49.17803488308998" y="-45.164337682450366" font-family="sans-serif">CONNECTION</text></g><g class="relationship" transform="translate(26.44860864434308 146.3210170485742) rotate(386.4908488441606)"><path class="outline" fill="#A5ABB6" stroke="none" d="M 14.44320574945421,-20.411854586953456 L 15.247803529220876,-19.818034401379958 A 45.39309509209627 45.39309509209627 0 0 1 22.466404883885218,-27.529318300104258 L 21.82083132002669,-28.293016390744135 A 46.39309509209627 46.39309509209627 0 0 0 14.44320574945421,-20.411854586953456 Z M 77.99561123568506,-31.132638920411708 L 77.43034125043043,-30.307732959850014 A 45.39309509209627 45.39309509209627 0 0 1 85.38976584572593,-23.363694869798127 L 83.16792271823313,-21.34790392904733 L 90.4635852287266,-18.515359395773384 L 88.35222334904968,-26.051416124132526 L 86.13038022155688,-24.03562518338173 A 46.39309509209627 46.39309509209627 0 0 0 77.99561123568506,-31.132638920411708"/><text text-anchor="middle" pointer-events="none" font-size="8px" fill="#000000" x="49.454059700195394" y="-35.69727062455679" font-family="sans-serif">CONNECTION</text></g><g class="relationship" transform="translate(26.44860864434308 146.3210170485742) rotate(386.4908488441606)"><path class="outline" fill="#A5ABB6" stroke="none" d="M 17.9862104268602,-17.370844380187897 L 18.666383164631117,-16.637792508358068 A 48.67087734348038 48.67087734348038 0 0 1 22.308676641505038,-19.700017686405097 L 21.70333907572351,-20.49598654977457 A 49.67087734348038 49.67087734348038 0 0 0 17.9862104268602,-17.370844380187897 Z M 78.38721947366585,-22.897233208877076 L 77.85136760552686,-22.05292119580848 A 48.67087734348038 48.67087734348038 0 0 1 81.73959163924218,-19.309704347584127 L 79.8923717275881,-16.945856087227995 L 87.56310756534883,-15.39349926378397 L 84.2025515214476,-22.461502028058966 L 82.35533160979352,-20.097653767702834 A 49.67087734348038 49.67087734348038 0 0 0 78.38721947366585,-22.897233208877076"/><text text-anchor="middle" pointer-events="none" font-size="8px" fill="#000000" x="49.68987326849513" y="-27.08633172308494" font-family="sans-serif">CONNECTION</text></g><g class="relationship" transform="translate(26.44860864434308 146.3210170485742) rotate(386.4908488441606)"><path class="outline" fill="#A5ABB6" stroke="none" d="M 20.90208894244944,-13.724164012497553 L 21.434121018964774,-12.87743981326927 A 57.02074626175195 57.02074626175195 0 0 1 21.845226007629485,-13.133325854536935 L 21.320403675209352,-13.984537649211497 A 58.02074626175195 58.02074626175195 0 0 0 20.90208894244944,-13.724164012497553 Z M 78.90922874864114,-15.879367369265076 L 78.44149533533493,-14.995497778161884 A 57.02074626175195 57.02074626175195 0 0 1 78.86853166079807,-14.767188876549174 L 77.44286400225766,-12.127591989259004 L 85.26520234089853,-11.880563821169948 L 80.76942187218526,-18.286651392936065 L 79.34375421364486,-15.647054505645897 A 58.02074626175195 58.02074626175195 0 0 0 78.90922874864114,-15.879367369265076"/><text text-anchor="middle" pointer-events="none" font-size="8px" fill="#000000" x="49.87942093410206" y="-19.086229927521714" font-family="sans-serif">CONNECTION</text></g><g class="relationship" transform="translate(26.44860864434308 146.3210170485742) rotate(271.1592329876708)"><path class="outline" fill="#A5ABB6" stroke="none" d="M 23.51253350472606,8.509451697326591 L 23.833972970029226,7.562521567831486 A 85.88053080366659 85.88053080366659 0 0 0 25.9309470524535,8.24445312322311 L 25.633924926712645,9.199323720121129 A 86.88053080366659 86.88053080366659 0 0 1 23.51253350472606,8.509451697326591 Z M 73.92920258246612,10.15886956436762 L 73.6703432327025,9.192954538581219 A 85.88053080366659 85.88053080366659 0 0 0 75.79274937828944,8.594854963449507 L 74.94203091117426,5.718002848774651 L 82.64719072371663,7.0893205592932125 L 76.92704066777635,12.43065778301598 L 76.07632220066117,9.553805668341123 A 86.88053080366659 86.88053080366659 0 0 1 73.92920258246612,10.15886956436762"/><text text-anchor="middle" pointer-events="none" font-size="8px" fill="#000000" x="49.72346781942899" y="15.603145905825912" font-family="sans-serif">CONNEC…</text></g><g class="relationship" transform="translate(26.44860864434308 146.3210170485742) rotate(271.1592329876708)"><path class="outline" fill="#A5ABB6" stroke="none" d="M 25 0.5 L 25.47649479800353 0.5 L 25.47649479800353 -0.5 L 25 -0.5 Z M 74.14446354800353 0.5 L 74.62095834600706 0.5 L 74.62095834600706 3.5 L 81.62095834600706 0 L 74.62095834600706 -3.5 L 74.62095834600706 -0.5 L 74.14446354800353 -0.5 Z"/><text text-anchor="middle" pointer-events="none" font-size="8px" fill="#000000" x="49.81047917300353" y="3" font-family="sans-serif">CONNEC…</text></g><g class="relationship" transform="translate(26.44860864434308 146.3210170485742) rotate(271.1592329876708)"><path class="outline" fill="#A5ABB6" stroke="none" d="M 23.51253350472606,-8.509451697326591 L 23.833972970029226,-7.562521567831486 A 85.88053080366659 85.88053080366659 0 0 1 25.930947052453476,-8.244453123223096 L 25.63392492671262,-9.199323720121114 A 86.88053080366659 86.88053080366659 0 0 0 23.51253350472606,-8.509451697326591 Z M 73.92920258246613,-10.158869564367606 L 73.67034323270252,-9.192954538581205 A 85.88053080366659 85.88053080366659 0 0 1 75.79274937828944,-8.594854963449507 L 74.94203091117426,-5.718002848774651 L 82.64719072371663,-7.0893205592932125 L 76.92704066777635,-12.43065778301598 L 76.07632220066117,-9.553805668341123 A 86.88053080366659 86.88053080366659 0 0 0 73.92920258246613,-10.158869564367606"/><text text-anchor="middle" pointer-events="none" font-size="8px" fill="#000000" x="49.72346781942898" y="-9.603145905825912" font-family="sans-serif">CONNEC…</text></g><g class="relationship" transform="translate(26.44860864434308 146.3210170485742) rotate(386.4908488441606)"><path class="outline" fill="#A5ABB6" stroke="none" d="M 23.08917320392191,-9.598962483481976 L 23.454514228288303,-8.668088734837774 A 77.50696182526796 77.50696182526796 0 0 1 24.051228118273123,-8.899443169592757 L 23.693585936384004,-9.833301868611827 A 78.50696182526796 78.50696182526796 0 0 0 23.08917320392191,-9.598962483481976 Z M 76.52592053641682,-11.020814243749214 L 76.21059902984197,-10.071829340027676 A 77.50696182526796 77.50696182526796 0 0 1 76.81710534148132,-9.867519685524432 L 75.84766526688958,-7.02847302479912 L 83.60312089560567,-8.078667288264569 L 78.10969210760365,-13.652915233158183 L 77.1402520330119,-10.81386857243287 A 78.50696182526796 78.50696182526796 0 0 0 76.52592053641682,-11.020814243749214"/><text text-anchor="middle" pointer-events="none" font-size="8px" fill="#000000" x="50.01806733559798" y="-11.506156759247915" font-family="sans-serif">CONNECT…</text></g><g class="relationship" transform="translate(26.44860864434308 146.3210170485742) rotate(386.4908488441606)"><path class="outline" fill="#A5ABB6" stroke="none" d="M 24.471206027250748,-5.139073415689509 L 24.657117634413662,-4.15650694245622 A 145.8428004384105 145.8428004384105 0 0 1 25.9935050513345,-4.402921788806935 L 25.81675664875147,-5.387177854160029 A 146.8428004384105 146.8428004384105 0 0 0 24.471206027250748,-5.139073415689509 Z M 74.42311917256801,-5.941370205831959 L 74.26885807125504,-4.953340088567444 A 145.8428004384105 145.8428004384105 0 0 1 75.61051641686933,-4.737459361660403 L 75.12013507569621,-1.777809696543052 L 82.59809585900534,-4.086511176442679 L 76.26435820510015,-8.683658915150206 L 75.77397686392703,-5.7240092500328545 A 146.8428004384105 146.8428004384105 0 0 0 74.42311917256801,-5.941370205831959"/><text text-anchor="middle" pointer-events="none" font-size="8px" fill="#000000" x="50.10254725827515" y="-4.189550139961682" font-family="sans-serif">CONNEC…</text></g><g class="relationship" transform="translate(26.44860864434308 146.3210170485742) rotate(386.4908488441606)"><path class="outline" fill="#A5ABB6" stroke="none" d="M 25 0.5 L 25.796937159158297 0.5 L 25.796937159158297 -0.5 L 25 -0.5 Z M 74.46490590915829 0.5 L 75.2618430683166 0.5 L 75.2618430683166 3.5 L 82.2618430683166 0 L 75.2618430683166 -3.5 L 75.2618430683166 -0.5 L 74.46490590915829 -0.5 Z"/><text text-anchor="middle" pointer-events="none" font-size="8px" fill="#000000" x="50.1309215341583" y="3" font-family="sans-serif">CONNEC…</text></g><g class="relationship" transform="translate(26.44860864434308 146.3210170485742) rotate(386.4908488441606)"><path class="outline" fill="#A5ABB6" stroke="none" d="M 24.471206027250748,5.139073415689509 L 24.657117634413662,4.15650694245622 A 145.8428004384105 145.8428004384105 0 0 0 25.993505051334456,4.402921788806935 L 25.81675664875143,5.387177854160029 A 146.8428004384105 146.8428004384105 0 0 1 24.471206027250748,5.139073415689509 Z M 74.42311917256804,5.941370205831959 L 74.26885807125507,4.953340088567444 A 145.8428004384105 145.8428004384105 0 0 0 75.61051641686933,4.737459361660403 L 75.12013507569621,1.777809696543052 L 82.59809585900534,4.086511176442679 L 76.26435820510015,8.683658915150206 L 75.77397686392703,5.7240092500328545 A 146.8428004384105 146.8428004384105 0 0 1 74.42311917256804,5.941370205831959"/><text text-anchor="middle" pointer-events="none" font-size="8px" fill="#000000" x="50.102547258275145" y="10.189550139961682" font-family="sans-serif">CONNEC…</text></g><g class="relationship" transform="translate(26.44860864434308 146.3210170485742) rotate(386.4908488441606)"><path class="outline" fill="#A5ABB6" stroke="none" d="M 23.08917320392191,9.598962483481976 L 23.454514228288303,8.668088734837774 A 77.50696182526796 77.50696182526796 0 0 0 24.05122811827312,8.899443169592757 L 23.693585936383997,9.833301868611827 A 78.50696182526796 78.50696182526796 0 0 1 23.08917320392191,9.598962483481976 Z M 76.52592053641683,11.0208142437492 L 76.21059902984199,10.071829340027676 A 77.50696182526796 77.50696182526796 0 0 0 76.81710534148132,9.867519685524432 L 75.84766526688958,7.02847302479912 L 83.60312089560567,8.078667288264569 L 78.10969210760365,13.652915233158183 L 77.1402520330119,10.81386857243287 A 78.50696182526796 78.50696182526796 0 0 1 76.52592053641683,11.0208142437492"/><text text-anchor="middle" pointer-events="none" font-size="8px" fill="#000000" x="50.01806733559799" y="17.506156759247915" font-family="sans-serif">CONNECT…</text></g><g class="relationship" transform="translate(26.44860864434308 146.3210170485742) rotate(271.1592329876708)"><path class="outline" fill="#A5ABB6" stroke="none" d="M 19.529452792776517,-15.615712395363635 L 20.13821422178524,-14.822359055072399 A 51.41776262122195 51.41776262122195 0 0 1 21.829634260369296,-16.066201147337303 L 21.253768468050257,-16.8837453903216 A 52.41776262122195 52.41776262122195 0 0 0 19.529452792776517,-15.615712395363635 Z M 78.2867560137903,-19.05033876858881 L 77.77457484084933,-18.191461334908773 A 51.41776262122195 51.41776262122195 0 0 1 79.55548709014883,-17.079527677846166 L 77.91503518489424,-14.567771808629061 L 85.68965943586451,-13.670432543788296 L 81.74275629715495,-20.42853550346897 L 80.10230439190036,-17.916779634251867 A 52.41776262122195 52.41776262122195 0 0 0 78.2867560137903,-19.05033876858881"/><text text-anchor="middle" pointer-events="none" font-size="8px" fill="#000000" x="49.46851240844769" y="-22.91024665580359" font-family="sans-serif">CONNECTION</text></g><g class="relationship" transform="translate(26.44860864434308 146.3210170485742) rotate(271.1592329876708)"><path class="outline" fill="#A5ABB6" stroke="none" d="M 13.473521019338785,-21.06452542407343 L 14.30499063164133,-20.50895519105383 A 44.66113215735676 44.66113215735676 0 0 1 22.177576573332768,-29.436216838833726 L 21.522380726638172,-30.191675906205443 A 45.66113215735676 45.66113215735676 0 0 0 13.473521019338785,-21.06452542407343 Z M 77.56734170573124,-33.14342616855782 L 76.99512687881503,-32.323322399600954 A 44.66113215735676 44.66113215735676 0 0 1 85.76191120515512,-24.27241546232505 L 83.45637988458448,-22.352903719754096 L 90.62502715791578,-19.21276100475537 L 88.83595296591598,-26.831764452419655 L 86.53042164534534,-24.9122527098487 A 45.66113215735676 45.66113215735676 0 0 0 77.56734170573124,-33.14342616855782"/><text text-anchor="middle" pointer-events="none" font-size="8px" fill="#000000" x="49.06413111970907" y="-37.79518620424737" font-family="sans-serif">CONNECTION</text></g><g class="relationship" transform="translate(26.44860864434308 146.3210170485742) rotate(271.1592329876708)"><path class="outline" fill="#A5ABB6" stroke="none" d="M 5.987513214418485,-24.277555179777966 L 6.953439040707552,-24.018736134675446 A 46.05521937612099 46.05521937612099 0 0 1 21.6192664548562,-47.19641718926228 L 20.97178070143654,-47.95849474379237 A 47.05521937612099 47.05521937612099 0 0 0 5.987513214418485,-24.277555179777966 Z M 77.21608010766319,-51.46569117890868 L 76.66828295406555,-50.62907999173131 A 46.05521937612099 46.05521937612099 0 0 1 94.09986217789093,-29.452880177476494 L 91.32099164697571,-28.32244726376116 L 97.20068406504592,-23.157254424293534 L 97.80502288577789,-30.96012406243028 L 95.02615235486267,-29.829691148714943 A 47.05521937612099 47.05521937612099 0 0 0 77.21608010766319,-51.46569117890868"/><text text-anchor="middle" pointer-events="none" font-size="8px" fill="#000000" x="48.54197288849974" y="-55.563739673066785" font-family="sans-serif">CONNECTION</text></g><g class="relationship" transform="translate(26.44860864434308 146.3210170485742) rotate(386.4908488441606)"><path class="outline" fill="#A5ABB6" stroke="none" d="M 20.90208894244944,13.724164012497553 L 21.434121018964774,12.87743981326927 A 57.02074626175195 57.02074626175195 0 0 0 21.845226007629492,13.133325854536935 L 21.32040367520936,13.984537649211497 A 58.02074626175195 58.02074626175195 0 0 1 20.90208894244944,13.724164012497553 Z M 78.90922874864117,15.879367369265069 L 78.44149533533496,14.995497778161877 A 57.02074626175195 57.02074626175195 0 0 0 78.86853166079807,14.767188876549174 L 77.44286400225766,12.127591989259004 L 85.26520234089853,11.880563821169948 L 80.76942187218526,18.286651392936065 L 79.34375421364486,15.647054505645897 A 58.02074626175195 58.02074626175195 0 0 1 78.90922874864117,15.879367369265069"/><text text-anchor="middle" pointer-events="none" font-size="8px" fill="#000000" x="49.87942093410207" y="25.08622992752172" font-family="sans-serif">CONNECTION</text></g><g class="relationship" transform="translate(26.44860864434308 146.3210170485742) rotate(386.4908488441606)"><path class="outline" fill="#A5ABB6" stroke="none" d="M 17.9862104268602,17.370844380187897 L 18.666383164631117,16.637792508358068 A 48.67087734348038 48.67087734348038 0 0 0 22.308676641505052,19.700017686405104 L 21.703339075723527,20.495986549774585 A 49.67087734348038 49.67087734348038 0 0 1 17.9862104268602,17.370844380187897 Z M 78.38721947366585,22.897233208877076 L 77.85136760552686,22.05292119580848 A 48.67087734348038 48.67087734348038 0 0 0 81.73959163924218,19.309704347584127 L 79.8923717275881,16.945856087227995 L 87.56310756534883,15.39349926378397 L 84.2025515214476,22.461502028058966 L 82.35533160979352,20.097653767702834 A 49.67087734348038 49.67087734348038 0 0 1 78.38721947366585,22.897233208877076"/><text text-anchor="middle" pointer-events="none" font-size="8px" fill="#000000" x="49.68987326849514" y="33.08633172308494" font-family="sans-serif">CONNECTION</text></g><g class="relationship" transform="translate(26.44860864434308 146.3210170485742) rotate(386.4908488441606)"><path class="outline" fill="#A5ABB6" stroke="none" d="M 14.44320574945421,20.411854586953456 L 15.247803529220876,19.818034401379958 A 45.39309509209627 45.39309509209627 0 0 0 22.46640488388523,27.529318300104265 L 21.820831320026702,28.29301639074415 A 46.39309509209627 46.39309509209627 0 0 1 14.44320574945421,20.411854586953456 Z M 77.99561123568508,31.1326389204117 L 77.43034125043044,30.30773295985 A 45.39309509209627 45.39309509209627 0 0 0 85.38976584572593,23.363694869798127 L 83.16792271823313,21.34790392904733 L 90.4635852287266,18.515359395773384 L 88.35222334904968,26.051416124132526 L 86.13038022155688,24.03562518338173 A 46.39309509209627 46.39309509209627 0 0 1 77.99561123568508,31.1326389204117"/><text text-anchor="middle" pointer-events="none" font-size="8px" fill="#000000" x="49.45405970019541" y="41.69727062455679" font-family="sans-serif">CONNECTION</text></g><g class="relationship" transform="translate(26.44860864434308 146.3210170485742) rotate(386.4908488441606)"><path class="outline" fill="#A5ABB6" stroke="none" d="M 10.396609043987748,22.74116356711926 L 11.29757791189017,22.307279828001697 A 44.922095076821385 44.922095076821385 0 0 0 22.3146221457235,36.73263958559969 L 21.658901061010916,37.487642803515584 A 45.922095076821385 45.922095076821385 0 0 1 10.396609043987748,22.74116356711926 Z M 77.73479668312237,40.694003329051014 L 77.16940850597953,39.86917837238014 A 44.922095076821385 44.922095076821385 0 0 0 89.75892638830442,26.793616920687487 L 87.2220051294262,25.192357876606316 L 93.91801770097352,21.141010490651833 L 93.14148806680872,28.92862897946238 L 90.6045668079305,27.32736993538121 A 45.922095076821385 45.922095076821385 0 0 1 77.73479668312237,40.694003329051014"/><text text-anchor="middle" pointer-events="none" font-size="8px" fill="#000000" x="49.17803488308997" y="51.164337682450366" font-family="sans-serif">CONNECTION</text></g><g class="relationship" transform="translate(26.44860864434308 146.3210170485742) rotate(386.4908488441606)"><path class="outline" fill="#A5ABB6" stroke="none" d="M 5.987513214418485,24.277555179777966 L 6.953439040707552,24.018736134675446 A 46.39853992571363 46.39853992571363 0 0 0 21.90806470343779,47.52089984357624 L 21.264446986125282,48.28624697655672 A 47.39853992571363 47.39853992571363 0 0 1 5.987513214418485,24.277555179777966 Z M 77.5636355019876,51.77623872273218 L 77.01947003855027,50.937260803832025 A 46.39853992571363 46.39853992571363 0 0 0 94.76224952671292,29.462012173215523 L 91.98255457046093,28.333608012381614 L 97.85847506136736,23.16412463543321 L 98.46850946838222,30.9665510543274 L 95.68881451213024,29.83814689349349 A 47.39853992571363 47.39853992571363 0 0 1 77.5636355019876,51.77623872273218"/><text text-anchor="middle" pointer-events="none" font-size="8px" fill="#000000" x="48.86931225062823" y="61.81859895863199" font-family="sans-serif">CONNECTION</text></g><g class="relationship" transform="translate(28.605662807452074 39.72188067328086) rotate(342.5017813580705)"><path class="outline" fill="#A5ABB6" stroke="none" d="M 24.018736134675446,6.953439040707552 L 24.277555179777966,5.987513214418485 A 106.19049624046329 106.19049624046329 0 0 0 26.11057700438495,6.461197615364142 L 25.869019596524016,7.4315841459319785 A 107.19049624046329 107.19049624046329 0 0 1 24.018736134675446,6.953439040707552 Z M 74.33611686130749,8.201806510981186 L 74.12551573865788,7.224234433260719 A 106.19049624046329 106.19049624046329 0 0 0 75.97266341372176,6.809034014558383 L 75.28867606301196,3.8880476564818873 L 82.90229614101855,5.699894589248281 L 76.88464654800148,10.703682491993712 L 76.20065919729169,7.7826961339172165 A 107.19049624046329 107.19049624046329 0 0 1 74.33611686130749,8.201806510981186"/><text text-anchor="middle" pointer-events="none" font-size="8px" fill="#000000" x="50.066403562232274" y="13.092397122164712" font-family="sans-serif">CONNEC…</text></g><g class="relationship" transform="translate(28.605662807452074 39.72188067328086) rotate(342.5017813580705)"><path class="outline" fill="#A5ABB6" stroke="none" d="M 24.018736134675446,-6.953439040707552 L 24.277555179777966,-5.987513214418485 A 106.19049624046329 106.19049624046329 0 0 1 26.110577004384933,-6.461197615364142 L 25.869019596523998,-7.4315841459319785 A 107.19049624046329 107.19049624046329 0 0 0 24.018736134675446,-6.953439040707552 Z M 74.33611686130743,-8.2018065109812 L 74.12551573865782,-7.224234433260719 A 106.19049624046329 106.19049624046329 0 0 1 75.97266341372176,-6.809034014558383 L 75.28867606301196,-3.8880476564818873 L 82.90229614101855,-5.699894589248281 L 76.88464654800148,-10.703682491993712 L 76.20065919729169,-7.7826961339172165 A 107.19049624046329 107.19049624046329 0 0 0 74.33611686130743,-8.2018065109812"/><text text-anchor="middle" pointer-events="none" font-size="8px" fill="#000000" x="50.06640356223224" y="-7.092397122164712" font-family="sans-serif">CONNEC…</text></g><g class="relationship" transform="translate(28.605662807452074 39.72188067328086) rotate(342.5017813580705)"><path class="outline" fill="#A5ABB6" stroke="none" d="M 17.324116139070416,-18.03122292025696 L 18.031222920256962,-17.324116139070412 A 47.70206706098865 47.70206706098865 0 0 1 22.358236618987288,-21.15594047288294 L 21.74183898240024,-21.943375520115353 A 48.70206706098865 48.70206706098865 0 0 0 17.324116139070416,-18.03122292025696 Z M 78.28763802546844,-24.438058230674606 L 77.7429802396592,-23.599399839935337 A 47.70206706098865 47.70206706098865 0 0 1 82.39062993451367,-20.16351893569597 L 80.46436423120635,-17.863627538203048 L 88.07808747921504,-16.052214194227695 L 84.95898420559011,-23.23004079901986 L 83.03271850228279,-20.93014940152694 A 48.70206706098865 48.70206706098865 0 0 0 78.28763802546844,-24.438058230674606"/><text text-anchor="middle" pointer-events="none" font-size="8px" fill="#000000" x="49.637169912778674" y="-28.748886453471748" font-family="sans-serif">CONNECTION</text></g><g class="relationship" transform="translate(28.605662807452074 39.72188067328086) rotate(342.5017813580705)"><path class="outline" fill="#A5ABB6" stroke="none" d="M 5.987513214418485,-24.277555179777966 L 6.953439040707552,-24.018736134675446 A 46.38890249692963 46.38890249692963 0 0 1 21.89994640938943,-47.51180271495499 L 21.25622064742978,-48.2770589749029 A 47.38890249692963 47.38890249692963 0 0 0 5.987513214418485,-24.277555179777966 Z M 77.55388475228462,-51.76753204846002 L 77.00961794344137,-50.92861987141668 A 46.38890249692963 46.38890249692963 0 0 1 94.74365520470232,-29.4617574485165 L 91.9639832438158,-28.33329664287844 L 97.84000907800554,-23.163933007387634 L 98.44988448588434,-30.966371856033913 L 95.67021252499782,-29.837911050395853 A 47.38890249692963 47.38890249692963 0 0 0 77.55388475228462,-51.76753204846002"/><text text-anchor="middle" pointer-events="none" font-size="8px" fill="#000000" x="48.86012265069482" y="-55.811444782247605" font-family="sans-serif">CONNECTION</text></g></g><g class="layer nodes"><g class="node" transform="translate(130.88694216684368,7.476213247259527)"><circle class="outline" cx="0" cy="0" r="25" fill="#ECB5C9" stroke="#da7298" stroke-width="2px"/><text text-anchor="middle" pointer-events="none" font-family="sans-serif" dy="1.5625" font-size="25" fill="#2A2C34"/><text text-anchor="middle" pointer-events="none" x="0" y="5" font-size="10px" fill="#2A2C34" font-family="sans-serif"> LAX</text></g><g class="node" transform="translate(122.44856056440571,194.16568456500534)"><circle class="outline" cx="0" cy="0" r="25" fill="#ECB5C9" stroke="#da7298" stroke-width="2px"/><text text-anchor="middle" pointer-events="none" font-family="sans-serif" dy="1.5625" font-size="25" fill="#2A2C34"/><text text-anchor="middle" pointer-events="none" x="0" y="5" font-size="10px" fill="#2A2C34" font-family="sans-serif"> DAY</text></g><g class="node" transform="translate(28.605662807452074,39.72188067328086)"><circle class="outline" cx="0" cy="0" r="25" fill="#ECB5C9" stroke="#da7298" stroke-width="2px"/><text text-anchor="middle" pointer-events="none" font-family="sans-serif" dy="1.5625" font-size="25" fill="#2A2C34"/><text text-anchor="middle" pointer-events="none" x="0" y="5" font-size="10px" fill="#2A2C34" font-family="sans-serif"> ORD</text></g><g class="node" transform="translate(26.44860864434308,146.3210170485742)"><circle class="outline" cx="0" cy="0" r="25" fill="#ECB5C9" stroke="#da7298" stroke-width="2px"/><text text-anchor="middle" pointer-events="none" font-family="sans-serif" dy="1.5625" font-size="25" fill="#2A2C34"/><text text-anchor="middle" pointer-events="none" x="0" y="5" font-size="10px" fill="#2A2C34" font-family="sans-serif"> MSP</text></g></g></svg>