<svg xmlns="http://www.w3.org/2000/svg" width="416.8974914550781" height="369.68475341796875" viewBox="-108.46027374267578 -106.66925811767578 416.8974914550781 369.68475341796875"><title>Neo4j Graph Visualization</title><desc>Created using Neo4j (http://www.neo4j.com/)</desc><g class="layer relationships"><g class="relationship" transform="translate(164.23233818886285 -77.6692559891587) rotate(405.0947504538017)"><path class="outline" fill="#A5ABB6" stroke="none" d="M 24.018736134675446,-6.953439040707552 L 24.277555179777966,-5.987513214418485 A 108.88967158506462 108.88967158506462 0 0 1 39.82323094479085,-8.962065295438236 L 39.70717728357388,-9.95530824040091 A 109.88967158506462 109.88967158506462 0 0 0 24.018736134675446,-6.953439040707552 Z M 61.77949836783389,-10.301966196449285 L 61.69469310604303,-9.305568651504203 A 108.88967158506462 108.88967158506462 0 0 1 77.32611255060907,-6.820670017424637 L 76.64103830469497,-3.899938383469675 L 84.255332070823,-5.708952049284216 L 78.23954487849454,-10.714978862697919 L 77.55447063258045,-7.7942472287429565 A 109.88967158506462 109.88967158506462 0 0 0 61.77949836783389,-10.301966196449285"/><text text-anchor="middle" pointer-events="none" font-size="8px" fill="#000000" x="50.74246282531861" y="-7.184350030191325" font-family="sans-serif">road</text></g><g class="relationship" transform="translate(240.89334107405114 -0.7542831469914452) rotate(430.3896337401007)"><path class="outline" fill="#A5ABB6" stroke="none" d="M 21.40063509461097,-12.933012701892217 L 21.90063509461097,-12.06698729810778 A 67.56753748853087 67.56753748853087 0 0 1 31.23491025802481,-16.540626706588696 L 30.873057591942352,-17.472862003093297 A 68.56753748853087 68.56753748853087 0 0 0 21.40063509461097,-12.933012701892217 Z M 76.75648929043221,-18.80110835427942 L 76.44917060547755,-17.849501699259747 A 67.56753748853087 67.56753748853087 0 0 1 86.02660601955748,-13.92332375212524 L 84.67941164300507,-11.242826165522047 L 92.50563278439034,-11.22661980460347 L 87.82286518829403,-17.497320534262833 L 86.47567081174162,-14.81682294765964 A 68.56753748853087 68.56753748853087 0 0 0 76.75648929043221,-18.80110835427942"/><text text-anchor="middle" pointer-events="none" font-size="8px" fill="#000000" x="53.71479091671778" y="-18.590818368924147" font-family="sans-serif">twowheeler</text></g><g class="relationship" transform="translate(279.4372169646174 107.42755525344732) rotate(519.7671843820971)"><path class="outline" fill="#A5ABB6" stroke="none" d="M 21.40063509461097,12.933012701892217 L 21.90063509461097,12.06698729810778 A 66.37760610884352 66.37760610884352 0 0 0 30.677966369828635,16.308031409440595 L 30.31019969051852,17.237949507763886 A 67.37760610884352 67.37760610884352 0 0 1 21.40063509461097,12.933012701892217 Z M 76.16698006772216,18.57822397059175 L 75.85415295592719,17.628413885297853 A 66.37760610884352 66.37760610884352 0 0 0 84.86419891114365,13.907248563241957 L 83.51849984902529,11.225999967118547 L 91.34472881245134,11.214158850986347 L 86.65846432730146,17.482246691406505 L 85.3127652651831,14.800998095283095 A 67.37760610884352 67.37760610884352 0 0 1 76.16698006772216,18.57822397059175"/><text text-anchor="middle" pointer-events="none" font-size="8px" fill="#000000" x="53.13561394434187" y="24.43135376861177" transform="rotate(180 53.13561394434187 21.43135376861177)" font-family="sans-serif">twowheeler</text></g><g class="relationship" transform="translate(172.76388505535368 146.74508078582065) rotate(493.6154248925631)"><path class="outline" fill="#A5ABB6" stroke="none" d="M 25 0.5 L 47.102807632058216 0.5 L 47.102807632058216 -0.5 L 25 -0.5 Z M 66.43874513205822 0.5 L 88.54155276411643 0.5 L 88.54155276411643 3.5 L 95.54155276411643 0 L 88.54155276411643 -3.5 L 88.54155276411643 -0.5 L 66.43874513205822 -0.5 Z"/><text text-anchor="middle" pointer-events="none" font-size="8px" fill="#000000" x="56.770776382058216" y="3" transform="rotate(180 56.770776382058216 0)" font-family="sans-serif">trek</text></g><g class="relationship" transform="translate(164.23233818886285 -77.6692559891587) rotate(405.0947504538017)"><path class="outline" fill="#A5ABB6" stroke="none" d="M 24.018736134675446,6.953439040707552 L 24.277555179777966,5.987513214418485 A 108.88967158506462 108.88967158506462 0 0 0 41.14691960703238,9.108529840658875 L 41.04302218288522,10.103117858511283 A 109.88967158506462 109.88967158506462 0 0 1 24.018736134675446,6.953439040707552 Z M 60.439670598624375,10.407752902026672 L 60.36705781816396,9.410392694221173 A 108.88967158506462 108.88967158506462 0 0 0 77.32611255060907,6.820670017424637 L 76.64103830469497,3.899938383469675 L 84.255332070823,5.708952049284216 L 78.23954487849454,10.714978862697919 L 77.55447063258045,7.7942472287429565 A 109.88967158506462 109.88967158506462 0 0 1 60.439670598624375,10.407752902026672"/><text text-anchor="middle" pointer-events="none" font-size="8px" fill="#000000" x="50.74246282531865" y="13.184350030191325" font-family="sans-serif">trek</text></g><g class="relationship" transform="translate(240.89334107405114 -0.7542831469914452) rotate(430.3896337401007)"><path class="outline" fill="#A5ABB6" stroke="none" d="M 25 0.5 L 42.915696961375154 0.5 L 42.915696961375154 -0.5 L 25 -0.5 Z M 64.92741571137515 0.5 L 82.84311267275031 0.5 L 82.84311267275031 3.5 L 89.84311267275031 0 L 82.84311267275031 -3.5 L 82.84311267275031 -0.5 L 64.92741571137515 -0.5 Z"/><text text-anchor="middle" pointer-events="none" font-size="8px" fill="#000000" x="53.921556336375154" y="3" font-family="sans-serif">road</text></g><g class="relationship" transform="translate(240.89334107405114 -0.7542831469914452) rotate(430.3896337401007)"><path class="outline" fill="#A5ABB6" stroke="none" d="M 21.40063509461097,12.933012701892217 L 21.90063509461097,12.06698729810778 A 67.56753748853087 67.56753748853087 0 0 0 44.18823666415659,20.134140353468013 L 44.01809331422807,21.119559675622355 A 68.56753748853087 68.56753748853087 0 0 1 21.40063509461097,12.933012701892217 Z M 63.42251181745453,21.68128418313445 L 63.30965800554867,20.687672580374937 A 67.56753748853087 67.56753748853087 0 0 0 86.02660601955748,13.92332375212524 L 84.67941164300507,11.242826165522047 L 92.50563278439034,11.22661980460347 L 87.82286518829403,17.497320534262833 L 86.47567081174162,14.81682294765964 A 68.56753748853087 68.56753748853087 0 0 1 63.42251181745453,21.68128418313445"/><text text-anchor="middle" pointer-events="none" font-size="8px" fill="#000000" x="53.71479091671777" y="24.590818368924147" font-family="sans-serif">trek</text></g><g class="relationship" transform="translate(279.4372169646174 107.42755525344732) rotate(519.7671843820971)"><path class="outline" fill="#A5ABB6" stroke="none" d="M 25 0.5 L 42.33837418173988 0.5 L 42.33837418173988 -0.5 L 25 -0.5 Z M 64.35009293173988 0.5 L 81.68846711347976 0.5 L 81.68846711347976 3.5 L 88.68846711347976 0 L 81.68846711347976 -3.5 L 81.68846711347976 -0.5 L 64.35009293173988 -0.5 Z"/><text text-anchor="middle" pointer-events="none" font-size="8px" fill="#000000" x="53.34423355673988" y="3" transform="rotate(180 53.34423355673988 0)" font-family="sans-serif">road</text></g><g class="relationship" transform="translate(279.4372169646174 107.42755525344732) rotate(519.7671843820971)"><path class="outline" fill="#A5ABB6" stroke="none" d="M 21.40063509461097,-12.933012701892217 L 21.90063509461097,-12.06698729810778 A 66.37760610884352 66.37760610884352 0 0 1 43.61223037697472,-19.960121404492384 L 43.439322547890946,-20.945059414034887 A 67.37760610884352 67.37760610884352 0 0 0 21.40063509461097,-12.933012701892217 Z M 62.84375551953608,-21.512200538283537 L 62.72866806216965,-20.518845175305657 A 66.37760610884352 66.37760610884352 0 0 1 84.86419891114365,-13.907248563241957 L 83.51849984902529,-11.225999967118547 L 91.34472881245134,-11.214158850986347 L 86.65846432730146,-17.482246691406505 L 85.3127652651831,-14.800998095283095 A 67.37760610884352 67.37760610884352 0 0 0 62.84375551953608,-21.512200538283537"/><text text-anchor="middle" pointer-events="none" font-size="8px" fill="#000000" x="53.13561394434185" y="-18.43135376861177" transform="rotate(180 53.13561394434185 -21.43135376861177)" font-family="sans-serif">trek</text></g><g class="relationship" transform="translate(164.23233818886285 -77.6692559891587) rotate(468.1775521089694)"><path class="outline" fill="#A5ABB6" stroke="none" d="M 21.40063509461097,12.933012701892217 L 21.90063509461097,12.06698729810778 A 64.42158681186099 64.42158681186099 0 0 0 42.66638377850881,19.673037231795128 L 42.48872524371585,20.65712942514655 A 65.42158681186099 65.42158681186099 0 0 1 21.40063509461097,12.933012701892217 Z M 61.89308766864554,21.23339475491926 L 61.77414131550247,20.2404940725376 A 64.42158681186099 64.42158681186099 0 0 0 82.95465998459996,13.880152658386729 L 81.61148142079215,11.197640525007422 L 89.43771805645297,11.193154698398395 L 84.7455647363437,17.45683550289247 L 83.40238617253588,14.774323369513164 A 65.42158681186099 65.42158681186099 0 0 1 61.89308766864554,21.23339475491926"/><text text-anchor="middle" pointer-events="none" font-size="8px" fill="#000000" x="52.18425502014713" y="24.16923335599921" transform="rotate(180 52.18425502014713 21.16923335599921)" font-family="sans-serif">trek</text></g><g class="relationship" transform="translate(129.35740784899616 28.543677924917645) rotate(429.8355167885477)"><path class="outline" fill="#A5ABB6" stroke="none" d="M 25 0.5 L 49.79172848114844 0.5 L 49.79172848114844 -0.5 L 25 -0.5 Z M 69.12766598114844 0.5 L 93.91939446229688 0.5 L 93.91939446229688 3.5 L 100.91939446229688 0 L 93.91939446229688 -3.5 L 93.91939446229688 -0.5 L 69.12766598114844 -0.5 Z"/><text text-anchor="middle" pointer-events="none" font-size="8px" fill="#000000" x="59.45969723114844" y="3" font-family="sans-serif">trek</text></g><g class="relationship" transform="translate(164.23233818886285 -77.6692559891587) rotate(468.1775521089694)"><path class="outline" fill="#A5ABB6" stroke="none" d="M 25 0.5 L 41.39013354230693 0.5 L 41.39013354230693 -0.5 L 25 -0.5 Z M 63.40185229230693 0.5 L 79.79198583461385 0.5 L 79.79198583461385 3.5 L 86.79198583461385 0 L 79.79198583461385 -3.5 L 79.79198583461385 -0.5 L 63.40185229230693 -0.5 Z"/><text text-anchor="middle" pointer-events="none" font-size="8px" fill="#000000" x="52.39599291730693" y="3" transform="rotate(180 52.39599291730693 0)" font-family="sans-serif">road</text></g><g class="relationship" transform="translate(164.23233818886285 -77.6692559891587) rotate(468.1775521089694)"><path class="outline" fill="#A5ABB6" stroke="none" d="M 21.40063509461097,-12.933012701892217 L 21.90063509461097,-12.06698729810778 A 64.42158681186099 64.42158681186099 0 0 1 22.939151160858945,-12.653822786271519 L 22.45527178311684,-13.528957488929294 A 65.42158681186099 65.42158681186099 0 0 0 21.40063509461097,-12.933012701892217 Z M 82.31424291533833,-15.306632476850965 L 81.88314951346317,-14.404325168413486 A 64.42158681186099 64.42158681186099 0 0 1 82.95465998459996,-13.880152658386729 L 81.61148142079215,-11.197640525007422 L 89.43771805645297,-11.193154698398395 L 84.7455647363437,-17.45683550289247 L 83.40238617253588,-14.774323369513164 A 65.42158681186099 65.42158681186099 0 0 0 82.31424291533833,-15.306632476850965"/><text text-anchor="middle" pointer-events="none" font-size="8px" fill="#000000" x="52.18425502014712" y="-18.16923335599921" transform="rotate(180 52.18425502014712 -21.16923335599921)" font-family="sans-serif">PublicTransport</text></g><g class="relationship" transform="translate(129.35740784899616 28.543677924917645) rotate(537.0985035863978)"><path class="outline" fill="#A5ABB6" stroke="none" d="M 24.018736134675446,-6.953439040707552 L 24.277555179777966,-5.987513214418485 A 138.93142669605066 138.93142669605066 0 0 1 35.29323478628926,-8.464187223799144 L 35.11370435045592,-9.447939643165682 A 139.93142669605066 139.93142669605066 0 0 0 24.018736134675446,-6.953439040707552 Z M 81.52522254223578,-10.092476782826225 L 81.37307967717017,-9.104118270640669 A 138.93142669605066 138.93142669605066 0 0 1 92.45328716920652,-6.9342995511454 L 91.75759937062708,-4.016077748933018 L 99.37841934079866,-5.7973983214954155 L 93.38087090064579,-10.825261954095241 L 92.68518310206635,-7.9070401518828595 A 139.93142669605066 139.93142669605066 0 0 0 81.52522254223578,-10.092476782826225"/><text text-anchor="middle" pointer-events="none" font-size="8px" fill="#000000" x="58.29949559910896" y="-8.208043286043448" transform="rotate(180 58.29949559910896 -11.208043286043448)" font-family="sans-serif">twowheeler</text></g><g class="relationship" transform="translate(5.819048569564662 34.80509600863008) rotate(442.3188990224561)"><path class="outline" fill="#A5ABB6" stroke="none" d="M 24.018736134675446,-6.953439040707552 L 24.277555179777966,-5.987513214418485 A 111.59429712073388 111.59429712073388 0 0 1 28.504460513258067,-7.032170874846514 L 28.283518899552483,-8.00745791122769 A 112.59429712073388 112.59429712073388 0 0 0 24.018736134675446,-6.953439040707552 Z M 74.61661561286857,-8.72669794198059 L 74.4260523999697,-7.745023015189815 A 111.59429712073388 111.59429712073388 0 0 1 78.68334624069371,-6.8320676606258885 L 77.99720737070396,-3.911585945036971 L 85.61216005539947,-5.717823916581281 L 79.59819806734671,-10.726043281411112 L 78.91205919735697,-7.8055615658221935 A 112.59429712073388 112.59429712073388 0 0 0 74.61661561286857,-8.72669794198059"/><text text-anchor="middle" pointer-events="none" font-size="8px" fill="#000000" x="51.420426931631596" y="-7.276493374311912" font-family="sans-serif">twowheeler</text></g><g class="relationship" transform="translate(20.51482303974043 143.76806427291302) rotate(412.56060325452853)"><path class="outline" fill="#A5ABB6" stroke="none" d="M 24.018736134675446,6.953439040707552 L 24.277555179777966,5.987513214418485 A 118.99569244821619 118.99569244821619 0 0 0 30.332448527454886,7.44124324191111 L 30.124512780924807,8.419385729136252 A 119.99569244821619 119.99569244821619 0 0 1 24.018736134675446,6.953439040707552 Z M 76.48513738507293,9.116865471417853 L 76.30672072462679,8.132910444358572 A 118.99569244821619 118.99569244821619 0 0 0 82.40260558629055,6.861984719576171 L 81.71367227231423,3.9421609425489326 L 89.33034995168349,5.741110949802638 L 83.32118333825898,10.755083088945822 L 82.63225002428265,7.835259311918584 A 119.99569244821619 119.99569244821619 0 0 1 76.48513738507293,9.116865471417853"/><text text-anchor="middle" pointer-events="none" font-size="8px" fill="#000000" x="53.27833826489837" y="13.528671973851786" font-family="sans-serif">twowheeler</text></g><g class="relationship" transform="translate(129.35740784899616 28.543677924917645) rotate(537.0985035863978)"><path class="outline" fill="#A5ABB6" stroke="none" d="M 24.018736134675446,6.953439040707552 L 24.277555179777966,5.987513214418485 A 138.93142669605066 138.93142669605066 0 0 0 48.68642039380297,10.240616308008583 L 48.60329136927028,11.237155100670577 A 139.93142669605066 139.93142669605066 0 0 1 24.018736134675446,6.953439040707552 Z M 67.991152090226,11.50640283873389 L 67.93572853097729,10.507939905480896 A 138.93142669605066 138.93142669605066 0 0 0 92.45328716920652,6.9342995511454 L 91.75759937062708,4.016077748933018 L 99.37841934079866,5.7973983214954155 L 93.38087090064579,10.825261954095241 L 92.68518310206635,7.9070401518828595 A 139.93142669605066 139.93142669605066 0 0 1 67.991152090226,11.50640283873389"/><text text-anchor="middle" pointer-events="none" font-size="8px" fill="#000000" x="58.299495599108965" y="14.208043286043448" transform="rotate(180 58.299495599108965 11.208043286043448)" font-family="sans-serif">trek</text></g><g class="relationship" transform="translate(5.819048569564662 34.80509600863008) rotate(442.3188990224561)"><path class="outline" fill="#A5ABB6" stroke="none" d="M 24.018736134675446,6.953439040707552 L 24.277555179777966,5.987513214418485 A 111.59429712073388 111.59429712073388 0 0 0 41.822867981653694,9.212590770601679 L 41.721273035403584,10.207416618122963 A 112.59429712073388 112.59429712073388 0 0 1 24.018736134675446,6.953439040707552 Z M 61.11705159571072,10.508502048576872 L 61.04638401129723,9.511002127517642 A 111.59429712073388 111.59429712073388 0 0 0 78.68334624069371,6.8320676606258885 L 77.99720737070396,3.911585945036971 L 85.61216005539947,5.717823916581281 L 79.59819806734671,10.726043281411112 L 78.91205919735697,7.8055615658221935 A 112.59429712073388 112.59429712073388 0 0 1 61.11705159571072,10.508502048576872"/><text text-anchor="middle" pointer-events="none" font-size="8px" fill="#000000" x="51.420426931631624" y="13.276493374311912" font-family="sans-serif">trek</text></g><g class="relationship" transform="translate(20.51482303974043 143.76806427291302) rotate(412.56060325452853)"><path class="outline" fill="#A5ABB6" stroke="none" d="M 24.018736134675446,-6.953439040707552 L 24.277555179777966,-5.987513214418485 A 118.99569244821619 118.99569244821619 0 0 1 43.675787817349516,-9.494852745317573 L 43.57998503139447,-10.490253079958492 A 119.99569244821619 119.99569244821619 0 0 0 24.018736134675446,-6.953439040707552 Z M 62.97345794434213,-10.78202124755255 L 62.907642654537355,-9.784189424233645 A 118.99569244821619 118.99569244821619 0 0 1 82.40260558629055,-6.861984719576171 L 81.71367227231423,-3.9421609425489326 L 89.33034995168349,-5.741110949802638 L 83.32118333825898,-10.755083088945822 L 82.63225002428265,-7.835259311918584 A 119.99569244821619 119.99569244821619 0 0 0 62.97345794434213,-10.78202124755255"/><text text-anchor="middle" pointer-events="none" font-size="8px" fill="#000000" x="53.27833826489834" y="-7.528671973851786" font-family="sans-serif">trek</text></g><g class="relationship" transform="translate(129.35740784899616 28.543677924917645) rotate(345.28219125947624)"><path class="outline" fill="#A5ABB6" stroke="none" d="M 25 0.5 L 44.49188496849946 0.5 L 44.49188496849946 -0.5 L 25 -0.5 Z M 63.82782246849946 0.5 L 83.31970743699893 0.5 L 83.31970743699893 3.5 L 90.31970743699893 0 L 83.31970743699893 -3.5 L 83.31970743699893 -0.5 L 63.82782246849946 -0.5 Z"/><text text-anchor="middle" pointer-events="none" font-size="8px" fill="#000000" x="54.15985371849946" y="3" font-family="sans-serif">trek</text></g><g class="relationship" transform="translate(5.819048569564662 34.80509600863008) rotate(496.24295933523246)"><path class="outline" fill="#A5ABB6" stroke="none" d="M 24.018736134675446,-6.953439040707552 L 24.277555179777966,-5.987513214418485 A 127.76360910557901 127.76360910557901 0 0 1 32.50834540059492,-7.903597530105571 L 32.31394837893427,-8.884520461823172 A 128.763609105579 128.763609105579 0 0 0 24.018736134675446,-6.953439040707552 Z M 78.70039376275993,-9.557748217042928 L 78.53454579201912,-8.571596884538053 A 127.76360910557901 127.76360910557901 0 0 1 86.81747557573765,-6.895183760661185 L 86.12544131117534,-3.9760933926404034 L 93.74402547854652,-5.766952204685923 L 87.74018792848739,-10.787304251355561 L 87.04815366392508,-7.868213883334779 A 128.763609105579 128.763609105579 0 0 0 78.70039376275993,-9.557748217042928"/><text text-anchor="middle" pointer-events="none" font-size="8px" fill="#000000" x="55.48385793297713" y="-7.827446004610692" transform="rotate(180 55.48385793297713 -10.827446004610692)" font-family="sans-serif">twowheeler</text></g><g class="relationship" transform="translate(-79.46027083099509 116.4623693425707) rotate(375.2763256400927)"><path class="outline" fill="#A5ABB6" stroke="none" d="M 21.40063509461097,12.933012701892217 L 21.90063509461097,12.06698729810778 A 55.98571642863798 55.98571642863798 0 0 0 25.885408485172952,14.158730755271549 L 25.456583306980246,15.062118250507119 A 56.98571642863798 56.98571642863798 0 0 1 21.40063509461097,12.933012701892217 Z M 70.999046635348,16.515170831903582 L 70.62868096041876,15.586284796464241 A 55.98571642863798 55.98571642863798 0 0 0 74.73869022037874,13.752808985944391 L 73.40735795406127,11.064397857292011 L 81.23353823162054,11.094435552645667 L 76.51379990880204,17.3373571574809 L 75.18246764248457,14.648946028828519 A 56.98571642863798 56.98571642863798 0 0 1 70.999046635348,16.515170831903582"/><text text-anchor="middle" pointer-events="none" font-size="8px" fill="#000000" x="48.092207944941855" y="23.038922953608775" font-family="sans-serif">twowheeler</text></g><g class="relationship" transform="translate(5.819048569564662 34.80509600863008) rotate(496.24295933523246)"><path class="outline" fill="#A5ABB6" stroke="none" d="M 24.018736134675446,6.953439040707552 L 24.277555179777966,5.987513214418485 A 127.76360910557901 127.76360910557901 0 0 0 45.87622721141679,9.825142063460078 L 45.786459997135594,10.821104837483375 A 128.763609105579 128.763609105579 0 0 1 24.018736134675446,6.953439040707552 Z M 65.17735542581437,11.102533795730352 L 65.11652966150966,10.104385396745144 A 127.76360910557901 127.76360910557901 0 0 0 86.81747557573765,6.895183760661185 L 86.12544131117534,3.9760933926404034 L 93.74402547854652,5.766952204685923 L 87.74018792848739,10.787304251355561 L 87.04815366392508,7.868213883334779 A 128.763609105579 128.763609105579 0 0 1 65.17735542581437,11.102533795730352"/><text text-anchor="middle" pointer-events="none" font-size="8px" fill="#000000" x="55.483857932977145" y="13.827446004610692" transform="rotate(180 55.483857932977145 10.827446004610692)" font-family="sans-serif">trek</text></g><g class="relationship" transform="translate(-79.46027083099509 116.4623693425707) rotate(375.2763256400927)"><path class="outline" fill="#A5ABB6" stroke="none" d="M 25 0.5 L 37.31262277686185 0.5 L 37.31262277686185 -0.5 L 25 -0.5 Z M 59.32434152686185 0.5 L 71.6369643037237 0.5 L 71.6369643037237 3.5 L 78.6369643037237 0 L 71.6369643037237 -3.5 L 71.6369643037237 -0.5 L 59.32434152686185 -0.5 Z"/><text text-anchor="middle" pointer-events="none" font-size="8px" fill="#000000" x="48.31848215186185" y="3" font-family="sans-serif">road</text></g><g class="relationship" transform="translate(-79.46027083099509 116.4623693425707) rotate(375.2763256400927)"><path class="outline" fill="#A5ABB6" stroke="none" d="M 21.40063509461097,-12.933012701892217 L 21.90063509461097,-12.06698729810778 A 55.98571642863798 55.98571642863798 0 0 1 38.60341692198398,-18.417457954842796 L 38.40175697892803,-19.396913552287963 A 56.98571642863798 56.98571642863798 0 0 0 21.40063509461097,-12.933012701892217 Z M 57.80387557166726,-20.01594678952131 L 57.66506215036645,-19.025628237707416 A 55.98571642863798 55.98571642863798 0 0 1 74.73869022037874,-13.752808985944391 L 73.40735795406127,-11.064397857292011 L 81.23353823162054,-11.094435552645667 L 76.51379990880204,-17.3373571574809 L 75.18246764248457,-14.648946028828519 A 56.98571642863798 56.98571642863798 0 0 0 57.80387557166726,-20.01594678952131"/><text text-anchor="middle" pointer-events="none" font-size="8px" fill="#000000" x="48.092207944941855" y="-17.038922953608775" font-family="sans-serif">trek</text></g><g class="relationship" transform="translate(-79.46027083099509 116.4623693425707) rotate(426.6298957570534)"><path class="outline" fill="#A5ABB6" stroke="none" d="M 25 0.5 L 48.47455610183183 0.5 L 48.47455610183183 -0.5 L 25 -0.5 Z M 67.81049360183184 0.5 L 91.28504970366366 0.5 L 91.28504970366366 3.5 L 98.28504970366366 0 L 91.28504970366366 -3.5 L 91.28504970366366 -0.5 L 67.81049360183184 -0.5 Z"/><text text-anchor="middle" pointer-events="none" font-size="8px" fill="#000000" x="58.14252485183183" y="3" font-family="sans-serif">trek</text></g><g class="relationship" transform="translate(-30.556917007786225 229.63332615250874) rotate(362.088456840521)"><path class="outline" fill="#A5ABB6" stroke="none" d="M 25 0.5 L 46.95671566901344 0.5 L 46.95671566901344 -0.5 L 25 -0.5 Z M 66.29265316901345 0.5 L 88.24936883802688 0.5 L 88.24936883802688 3.5 L 95.24936883802688 0 L 88.24936883802688 -3.5 L 88.24936883802688 -0.5 L 66.29265316901345 -0.5 Z"/><text text-anchor="middle" pointer-events="none" font-size="8px" fill="#000000" x="56.62468441901344" y="3" font-family="sans-serif">trek</text></g></g><g class="layer nodes"><g class="node" transform="translate(164.23233818886285,-77.6692559891587)"><circle class="outline" cx="0" cy="0" r="25" fill="#F16667" stroke="#eb2728" stroke-width="2px"/><text text-anchor="middle" pointer-events="none" font-family="sans-serif" dy="1.5625" font-size="25" fill="#FFFFFF"/><text text-anchor="middle" pointer-events="none" x="0" y="5" font-size="10px" fill="#FFFFFF" font-family="sans-serif"> Darjeeling</text></g><g class="node" transform="translate(89.61257690421074,234.01549900149058)"><circle class="outline" cx="0" cy="0" r="25" fill="#D9C8AE" stroke="#c0a378" stroke-width="2px"/><text text-anchor="middle" pointer-events="none" font-family="sans-serif" dy="1.5625" font-size="25" fill="#2A2C34"/><text text-anchor="middle" pointer-events="none" x="0" y="5" font-size="10px" fill="#2A2C34" font-family="sans-serif"> Sandak…</text></g><g class="node" transform="translate(240.89334107405114,-0.7542831469914452)"><circle class="outline" cx="0" cy="0" r="25" fill="#8DCC93" stroke="#5db665" stroke-width="2px"/><text text-anchor="middle" pointer-events="none" font-family="sans-serif" dy="1.5625" font-size="25" fill="#2A2C34"/><text text-anchor="middle" pointer-events="none" x="0" y="5" font-size="10px" fill="#2A2C34" font-family="sans-serif"> Tumbling</text></g><g class="node" transform="translate(279.4372169646174,107.42755525344732)"><circle class="outline" cx="0" cy="0" r="25" fill="#8DCC93" stroke="#5db665" stroke-width="2px"/><text text-anchor="middle" pointer-events="none" font-family="sans-serif" dy="1.5625" font-size="25" fill="#2A2C34"/><text text-anchor="middle" pointer-events="none" x="0" y="5" font-size="10px" fill="#2A2C34" font-family="sans-serif"> Gairibus</text></g><g class="node" transform="translate(172.76388505535368,146.74508078582065)"><circle class="outline" cx="0" cy="0" r="25" fill="#8DCC93" stroke="#5db665" stroke-width="2px"/><text text-anchor="middle" pointer-events="none" font-family="sans-serif" dy="1.5625" font-size="25" fill="#2A2C34"/><text text-anchor="middle" pointer-events="none" x="0" y="5" font-size="10px" fill="#2A2C34" font-family="sans-serif"> BhikeBh…</text></g><g class="node" transform="translate(129.35740784899616,28.543677924917645)"><circle class="outline" cx="0" cy="0" r="25" fill="#F16667" stroke="#eb2728" stroke-width="2px"/><text text-anchor="middle" pointer-events="none" font-family="sans-serif" dy="1.5625" font-size="25" fill="#FFFFFF"/><text text-anchor="middle" pointer-events="none" x="0" y="5" font-size="10px" fill="#FFFFFF" font-family="sans-serif"> Rimbik</text></g><g class="node" transform="translate(5.819048569564662,34.80509600863008)"><circle class="outline" cx="0" cy="0" r="25" fill="#8DCC93" stroke="#5db665" stroke-width="2px"/><text text-anchor="middle" pointer-events="none" font-family="sans-serif" dy="1.5625" font-size="25" fill="#2A2C34"/><text text-anchor="middle" pointer-events="none" x="0" y="5" font-size="10px" fill="#2A2C34" font-family="sans-serif"> Sirikhola</text></g><g class="node" transform="translate(20.51482303974043,143.76806427291302)"><circle class="outline" cx="0" cy="0" r="25" fill="#8DCC93" stroke="#5db665" stroke-width="2px"/><text text-anchor="middle" pointer-events="none" font-family="sans-serif" dy="1.5625" font-size="25" fill="#2A2C34"/><text text-anchor="middle" pointer-events="none" x="0" y="5" font-size="10px" fill="#2A2C34" font-family="sans-serif"> Gurdum</text></g><g class="node" transform="translate(-79.46027083099509,116.4623693425707)"><circle class="outline" cx="0" cy="0" r="25" fill="#8DCC93" stroke="#5db665" stroke-width="2px"/><text text-anchor="middle" pointer-events="none" font-family="sans-serif" dy="1.5625" font-size="25" fill="#2A2C34"/><text text-anchor="middle" pointer-events="none" x="0" y="5" font-size="10px" fill="#2A2C34" font-family="sans-serif"> Rammam</text></g><g class="node" transform="translate(-30.556917007786225,229.63332615250874)"><circle class="outline" cx="0" cy="0" r="25" fill="#D9C8AE" stroke="#c0a378" stroke-width="2px"/><text text-anchor="middle" pointer-events="none" font-family="sans-serif" dy="1.5625" font-size="25" fill="#2A2C34"/><text text-anchor="middle" pointer-events="none" x="0" y="5" font-size="10px" fill="#2A2C34" font-family="sans-serif"> Sabargr…</text></g></g></svg>