<svg xmlns="http://www.w3.org/2000/svg" width="168.45420837402344" height="245.52622985839844" viewBox="-5.324991226196289 -21.238815307617188 168.45420837402344 245.52622985839844"><title>Neo4j Graph Visualization</title><desc>Created using Neo4j (http://www.neo4j.com/)</desc><g class="layer relationships"><g class="relationship" transform="translate(134.1292071088508 7.7611850160183815) rotate(525.218135487024)"><path class="outline" fill="#A5ABB6" stroke="none" d="M 21.40063509461097,12.933012701892217 L 21.90063509461097,12.06698729810778 A 61.79888540832046 61.79888540832046 0 0 0 22.36051482622282,12.329877500017822 L 21.867956380040063,13.200156867286765 A 62.79888540832046 62.79888540832046 0 0 1 21.40063509461097,12.933012701892217 Z M 80.36070639589454,14.975516824704577 L 79.92183509399287,14.076966892665666 A 61.79888540832046 61.79888540832046 0 0 0 80.39681198530472,13.842451267328222 L 79.05714053309995,11.158185930192644 L 86.88337634732186,11.163928768373031 L 82.18304058824441,17.421471716842326 L 80.84336913603964,14.737206379706748 A 62.79888540832046 62.79888540832046 0 0 1 80.36070639589454,14.975516824704577"/><text text-anchor="middle" pointer-events="none" font-size="8px" fill="#000000" x="50.91006516932223" y="23.81779198211794" transform="rotate(180 50.91006516932223 20.81779198211794)" font-family="sans-serif">PublicTransp…</text></g><g class="relationship" transform="translate(28.4927442651917 35.63577481064979) rotate(452.59844714534154)"><path class="outline" fill="#A5ABB6" stroke="none" d="M 25 0.5 L 39.96578546049736 0.5 L 39.96578546049736 -0.5 L 25 -0.5 Z M 59.30172296049736 0.5 L 74.26750842099472 0.5 L 74.26750842099472 3.5 L 81.26750842099472 0 L 74.26750842099472 -3.5 L 74.26750842099472 -0.5 L 59.30172296049736 -0.5 Z"/><text text-anchor="middle" pointer-events="none" font-size="8px" fill="#000000" x="49.63375421049736" y="3" transform="rotate(180 49.63375421049736 0)" font-family="sans-serif">trek</text></g><g class="relationship" transform="translate(23.675009686411794 141.79401885949704) rotate(389.97417115718474)"><path class="outline" fill="#A5ABB6" stroke="none" d="M 25 0.5 L 40.367230308709296 0.5 L 40.367230308709296 -0.5 L 25 -0.5 Z M 59.703167808709296 0.5 L 75.07039811741859 0.5 L 75.07039811741859 3.5 L 82.07039811741859 0 L 75.07039811741859 -3.5 L 75.07039811741859 -0.5 L 59.703167808709296 -0.5 Z"/><text text-anchor="middle" pointer-events="none" font-size="8px" fill="#000000" x="50.035199058709296" y="3" font-family="sans-serif">trek</text></g><g class="relationship" transform="translate(134.1292071088508 7.7611850160183815) rotate(525.218135487024)"><path class="outline" fill="#A5ABB6" stroke="none" d="M 25 0.5 L 41.458158328392486 0.5 L 41.458158328392486 -0.5 L 25 -0.5 Z M 60.794095828392486 0.5 L 77.25225415678497 0.5 L 77.25225415678497 3.5 L 84.25225415678497 0 L 77.25225415678497 -3.5 L 77.25225415678497 -0.5 L 60.794095828392486 -0.5 Z"/><text text-anchor="middle" pointer-events="none" font-size="8px" fill="#000000" x="51.126127078392486" y="3" transform="rotate(180 51.126127078392486 0)" font-family="sans-serif">trek</text></g><g class="relationship" transform="translate(134.1292071088508 7.7611850160183815) rotate(525.218135487024)"><path class="outline" fill="#A5ABB6" stroke="none" d="M 21.40063509461097,-12.933012701892217 L 21.90063509461097,-12.06698729810778 A 61.79888540832046 61.79888540832046 0 0 1 40.09858547873828,-19.027119070082975 L 39.89305600622254,-20.005769996576895 A 62.79888540832046 62.79888540832046 0 0 0 21.40063509461097,-12.933012701892217 Z M 61.956041865434045,-20.675421220444854 L 61.810243671610536,-19.68610686864468 A 61.79888540832046 61.79888540832046 0 0 1 80.39681198530472,-13.842451267328222 L 79.05714053309995,-11.158185930192644 L 86.88337634732186,-11.163928768373031 L 82.18304058824441,-17.421471716842326 L 80.84336913603964,-14.737206379706748 A 62.79888540832046 62.79888540832046 0 0 0 61.956041865434045,-20.675421220444854"/><text text-anchor="middle" pointer-events="none" font-size="8px" fill="#000000" x="50.91006516932223" y="-17.81779198211794" transform="rotate(180 50.91006516932223 -20.81779198211794)" font-family="sans-serif">road</text></g></g><g class="layer nodes"><g class="node" transform="translate(134.1292071088508,7.7611850160183815)"><circle class="outline" cx="0" cy="0" r="25" fill="#F16667" stroke="#eb2728" stroke-width="2px"/><text text-anchor="middle" pointer-events="none" font-family="sans-serif" dy="1.5625" font-size="25" fill="#FFFFFF"/><text text-anchor="middle" pointer-events="none" x="0" y="5" font-size="10px" fill="#FFFFFF" font-family="sans-serif"> Darjeeling</text></g><g class="node" transform="translate(116.42481860612986,195.28741189432242)"><circle class="outline" cx="0" cy="0" r="25" fill="#D9C8AE" stroke="#c0a378" stroke-width="2px"/><text text-anchor="middle" pointer-events="none" font-family="sans-serif" dy="1.5625" font-size="25" fill="#2A2C34"/><text text-anchor="middle" pointer-events="none" x="0" y="5" font-size="10px" fill="#2A2C34" font-family="sans-serif"> Sandak…</text></g><g class="node" transform="translate(28.4927442651917,35.63577481064979)"><circle class="outline" cx="0" cy="0" r="25" fill="#F16667" stroke="#eb2728" stroke-width="2px"/><text text-anchor="middle" pointer-events="none" font-family="sans-serif" dy="1.5625" font-size="25" fill="#FFFFFF"/><text text-anchor="middle" pointer-events="none" x="0" y="5" font-size="10px" fill="#FFFFFF" font-family="sans-serif"> Rimbik</text></g><g class="node" transform="translate(23.675009686411794,141.79401885949704)"><circle class="outline" cx="0" cy="0" r="25" fill="#8DCC93" stroke="#5db665" stroke-width="2px"/><text text-anchor="middle" pointer-events="none" font-family="sans-serif" dy="1.5625" font-size="25" fill="#2A2C34"/><text text-anchor="middle" pointer-events="none" x="0" y="5" font-size="10px" fill="#2A2C34" font-family="sans-serif"> BhikeBh…</text></g></g></svg>