<svg xmlns="http://www.w3.org/2000/svg" width="163.5875701904297" height="243.39466857910156" viewBox="-1.4480648040771484 -20.733612060546875 163.5875701904297 243.39466857910156"><title>Neo4j Graph Visualization</title><desc>Created using Neo4j (http://www.neo4j.com/)</desc><g class="layer relationships"><g class="relationship" transform="translate(133.13951055587341 8.26638661703098) rotate(522.0406352048713)"><path class="outline" fill="#A5ABB6" stroke="none" d="M 21.40063509461097,12.933012701892217 L 21.90063509461097,12.06698729810778 A 59.93903211577876 59.93903211577876 0 0 0 23.470291413141734,12.942119598860288 L 22.996478961774464,13.82274537688938 A 60.93903211577876 60.93903211577876 0 0 1 21.40063509461097,12.933012701892217 Z M 77.38287486572767,15.499626758442062 L 76.96421505398739,14.591483618824974 A 59.93903211577876 59.93903211577876 0 0 0 78.5848039878293,13.81471530740056 L 77.24771268560106,11.129163809196589 L 85.07393936734327,11.142427518568663 L 80.36759239080028,17.395450638339188 L 79.03050108857204,14.709899140135215 A 60.93903211577876 60.93903211577876 0 0 1 77.38287486572767,15.499626758442062"/><text text-anchor="middle" pointer-events="none" font-size="8px" fill="#000000" x="50.00753558162905" y="23.56858697761519" transform="rotate(180 50.00753558162905 20.56858697761519)" font-family="sans-serif">PublicTrans…</text></g><g class="relationship" transform="translate(30.921601856694274 41.398868641063416) rotate(451.8102619167631)"><path class="outline" fill="#A5ABB6" stroke="none" d="M 25 0.5 L 40.16680904929146 0.5 L 40.16680904929146 -0.5 L 25 -0.5 Z M 59.50274654929146 0.5 L 74.66955559858292 0.5 L 74.66955559858292 3.5 L 81.66955559858292 0 L 74.66955559858292 -3.5 L 74.66955559858292 -0.5 L 59.50274654929146 -0.5 Z"/><text text-anchor="middle" pointer-events="none" font-size="8px" fill="#000000" x="49.83477779929146" y="3" transform="rotate(180 49.83477779929146 0)" font-family="sans-serif">trek</text></g><g class="relationship" transform="translate(27.551934656645642 148.01518744151764) rotate(385.1673723023596)"><path class="outline" fill="#A5ABB6" stroke="none" d="M 25 0.5 L 40.499715814607775 0.5 L 40.499715814607775 -0.5 L 25 -0.5 Z M 59.835653314607775 0.5 L 75.33536912921555 0.5 L 75.33536912921555 3.5 L 82.33536912921555 0 L 75.33536912921555 -3.5 L 75.33536912921555 -0.5 L 59.835653314607775 -0.5 Z"/><text text-anchor="middle" pointer-events="none" font-size="8px" fill="#000000" x="50.167684564607775" y="3" font-family="sans-serif">trek</text></g><g class="relationship" transform="translate(133.13951055587341 8.26638661703098) rotate(522.0406352048713)"><path class="outline" fill="#A5ABB6" stroke="none" d="M 25 0.5 L 40.55879884285485 0.5 L 40.55879884285485 -0.5 L 25 -0.5 Z M 59.89473634285485 0.5 L 75.4535351857097 0.5 L 75.4535351857097 3.5 L 82.4535351857097 0 L 75.4535351857097 -3.5 L 75.4535351857097 -0.5 L 59.89473634285485 -0.5 Z"/><text text-anchor="middle" pointer-events="none" font-size="8px" fill="#000000" x="50.22676759285485" y="3" transform="rotate(180 50.22676759285485 0)" font-family="sans-serif">trek</text></g><g class="relationship" transform="translate(133.13951055587341 8.26638661703098) rotate(522.0406352048713)"><path class="outline" fill="#A5ABB6" stroke="none" d="M 21.40063509461097,-12.933012701892217 L 21.90063509461097,-12.06698729810778 A 59.93903211577876 59.93903211577876 0 0 1 39.204054735903135,-18.743735175251757 L 38.99273840379868,-19.72115289955694 A 60.93903211577876 60.93903211577876 0 0 0 21.40063509461097,-12.933012701892217 Z M 61.053617838937235,-20.401350168940134 L 60.90291858482061,-19.412770513672697 A 59.93903211577876 59.93903211577876 0 0 1 78.5848039878293,-13.81471530740056 L 77.24771268560106,-11.129163809196589 L 85.07393936734327,-11.142427518568663 L 80.36759239080028,-17.395450638339188 L 79.03050108857204,-14.709899140135215 A 60.93903211577876 60.93903211577876 0 0 0 61.053617838937235,-20.401350168940134"/><text text-anchor="middle" pointer-events="none" font-size="8px" fill="#000000" x="50.00753558162906" y="-17.56858697761519" transform="rotate(180 50.00753558162906 -20.56858697761519)" font-family="sans-serif">road</text></g></g><g class="layer nodes"><g class="node" transform="translate(133.13951055587341,8.26638661703098)"><circle class="outline" cx="0" cy="0" r="25" fill="#F16667" stroke="#eb2728" stroke-width="2px"/><text text-anchor="middle" pointer-events="none" font-family="sans-serif" dy="1.5625" font-size="25" fill="#FFFFFF"/><text text-anchor="middle" pointer-events="none" x="0" y="5" font-size="10px" fill="#FFFFFF" font-family="sans-serif"> Darjeeling</text></g><g class="node" transform="translate(124.69788960930978,193.6610514648868)"><circle class="outline" cx="0" cy="0" r="25" fill="#D9C8AE" stroke="#c0a378" stroke-width="2px"/><text text-anchor="middle" pointer-events="none" font-family="sans-serif" dy="1.5625" font-size="25" fill="#2A2C34"/><text text-anchor="middle" pointer-events="none" x="0" y="5" font-size="10px" fill="#2A2C34" font-family="sans-serif"> Sandak…</text></g><g class="node" transform="translate(30.921601856694274,41.398868641063416)"><circle class="outline" cx="0" cy="0" r="25" fill="#F16667" stroke="#eb2728" stroke-width="2px"/><text text-anchor="middle" pointer-events="none" font-family="sans-serif" dy="1.5625" font-size="25" fill="#FFFFFF"/><text text-anchor="middle" pointer-events="none" x="0" y="5" font-size="10px" fill="#FFFFFF" font-family="sans-serif"> Rimbik</text></g><g class="node" transform="translate(27.551934656645642,148.01518744151764)"><circle class="outline" cx="0" cy="0" r="25" fill="#8DCC93" stroke="#5db665" stroke-width="2px"/><text text-anchor="middle" pointer-events="none" font-family="sans-serif" dy="1.5625" font-size="25" fill="#2A2C34"/><text text-anchor="middle" pointer-events="none" x="0" y="5" font-size="10px" fill="#2A2C34" font-family="sans-serif"> BhikeBh…</text></g></g></svg>